<svg xmlns="http://www.w3.org/2000/svg"><symbol id="accredited" viewBox="0 0 96.543 89.009"><path d="M10.87-10806.991a7.3 7.3 0 01-7.285-7.287v-2.057H-7.93a6.077 6.077 0 01-6.07-6.065v-53.794a6.078 6.078 0 016.071-6.07H3.585v-2.059a7.293 7.293 0 017.285-7.285h9.642a23.69 23.69 0 0113.76-4.389 23.675 23.675 0 0113.757 4.389h9.642a7.293 7.293 0 017.285 7.285v2.059h11.515a6.078 6.078 0 016.071 6.07v11.384a1.433 1.433 0 01-1.433 1.434 1.433 1.433 0 01-1.433-1.434v-11.384a3.209 3.209 0 00-3.2-3.2h-11.52v32.732h7.957a1.433 1.433 0 011.433 1.434 1.433 1.433 0 01-1.433 1.436h-7.957v3.391h7.957a1.432 1.432 0 011.433 1.433 1.433 1.433 0 01-1.433 1.436h-7.957v3.615h7.957a1.433 1.433 0 011.433 1.436 1.433 1.433 0 01-1.433 1.434h-7.957v11.854h11.515a3.209 3.209 0 003.2-3.205v-36.673a1.432 1.432 0 011.433-1.433 1.432 1.432 0 011.433 1.433v36.673a6.078 6.078 0 01-6.071 6.071h-11.51v2.057a7.3 7.3 0 01-7.285 7.287zm-4.416-14.323v7.036a4.422 4.422 0 004.416 4.419h46.8a4.425 4.425 0 004.419-4.419v-70.048a4.424 4.424 0 00-4.419-4.417h-6.3a23.729 23.729 0 016.713 16.555 23.839 23.839 0 01-23.81 23.813 23.84 23.84 0 01-23.812-23.812 23.72 23.72 0 016.716-16.555H10.87a4.424 4.424 0 00-4.419 4.417v57.274a1.433 1.433 0 01-1.433 1.436 1.433 1.433 0 01-1.433-1.436v-4h-7.958a1.433 1.433 0 01-1.433-1.434 1.433 1.433 0 011.433-1.436h7.958v-3.615h-7.958a1.433 1.433 0 01-1.433-1.436 1.432 1.432 0 011.433-1.433h7.958v-3.391h-7.958a1.433 1.433 0 01-1.433-1.436 1.433 1.433 0 011.433-1.434h7.958v-32.734H-7.93a3.206 3.206 0 00-3.2 3.2v53.794a3.207 3.207 0 003.2 3.2H3.585v-2.113a1.435 1.435 0 011.433-1.436 1.435 1.435 0 011.436 1.441zm14.564-34.669a20.835 20.835 0 0013.254 4.739 20.857 20.857 0 0013.254-4.739 14.812 14.812 0 00-13.254-8.157 14.806 14.806 0 00-13.254 8.157zm-7.692-16.205a20.87 20.87 0 005.532 14.165 17.633 17.633 0 019.265-7.889 11.6 11.6 0 01-5.455-9.836 11.617 11.617 0 0111.605-11.605 11.619 11.619 0 0111.605 11.605 11.6 11.6 0 01-5.458 9.836 17.656 17.656 0 019.267 7.886 20.868 20.868 0 005.529-14.162 20.968 20.968 0 00-20.944-20.943 20.968 20.968 0 00-20.947 20.943zm12.207-3.56a8.75 8.75 0 008.74 8.739 8.75 8.75 0 008.737-8.739 8.748 8.748 0 00-8.737-8.737 8.748 8.748 0 00-8.741 8.737zm-11.594 50.44a1.435 1.435 0 01-1.436-1.433 1.435 1.435 0 011.436-1.436h10.305a1.435 1.435 0 011.433 1.436 1.434 1.434 0 01-1.433 1.433zm0-6.483a1.433 1.433 0 01-1.436-1.433 1.433 1.433 0 011.436-1.433h40.667a1.432 1.432 0 011.433 1.433 1.432 1.432 0 01-1.433 1.433zm0-6.259a1.435 1.435 0 01-1.436-1.434 1.435 1.435 0 011.436-1.436h40.667a1.435 1.435 0 011.433 1.436 1.434 1.434 0 01-1.433 1.434z" transform="translate(14.001 10896)"/></symbol><symbol id="candidate" viewBox="0 0 35.112 35.112"><path d="M29.594 26.583h-1.586l-.562-.542a13.069 13.069 0 10-1.405 1.405l.542.562v1.586l10.038 10.018 2.991-2.991zm-12.045 0a9.034 9.034 0 119.034-9.034 9.022 9.022 0 01-9.034 9.034z" transform="translate(-4.5 -4.5)"/></symbol><symbol id="client" viewBox="0 0 36.246 36.246"><path d="M24.123 24.123a9.062 9.062 0 10-9.062-9.062 9.059 9.059 0 009.062 9.062zm0 4.531C18.075 28.654 6 31.69 6 37.716v4.531h36.246v-4.531c0-6.026-12.074-9.062-18.123-9.062z" transform="translate(-6 -6)"/></symbol><symbol id="contact" viewBox="0 0 103.408 82.727"><path d="M96.067 6H13.341A10.327 10.327 0 003.052 16.341L3 78.386a10.371 10.371 0 0010.341 10.341h82.726a10.371 10.371 0 0010.341-10.341V16.341A10.371 10.371 0 0096.067 6zm0 20.682L54.7 52.534 13.341 26.682V16.341L54.7 42.193l41.367-25.852z" transform="translate(-3 -6)"/></symbol><symbol id="down" viewBox="0 0 22.94 14.166"><path d="M11.7 12l8.775 8.756L29.245 12l2.7 2.7L20.47 26.166 9 14.7z" transform="translate(-9 -12)"/></symbol><symbol id="email" viewBox="0 0 21.741 17.393"><path d="M22.567 6H5.174a2.171 2.171 0 00-2.163 2.174L3 21.219a2.18 2.18 0 002.174 2.174h17.393a2.18 2.18 0 002.174-2.174V8.174A2.18 2.18 0 0022.567 6zm0 4.348l-8.7 5.435-8.7-5.435V8.174l8.7 5.435 8.7-5.435z" transform="translate(-3 -6)"/></symbol><symbol id="facebook" viewBox="0 0 35.717 35.5"><path d="M36.28 18.42a17.859 17.859 0 10-20.649 17.642V23.583h-4.537V18.42h4.537v-3.934c0-4.475 2.664-6.947 6.745-6.947a27.485 27.485 0 014 .349v4.392h-2.254a2.581 2.581 0 00-2.91 2.789v3.351h4.953l-.792 5.162h-4.161v12.48A17.865 17.865 0 0036.28 18.42z" transform="translate(-.563 -.563)"/></symbol><symbol id="focussed" viewBox="0 0 97.131 79.676"><path d="M7.438-10816.324a1.9 1.9 0 01-1.9-1.9v-32.251a19.847 19.847 0 01-17.553-10.732 1.9 1.9 0 01.831-2.552 1.893 1.893 0 012.549.831 16 16 0 0015.863 8.567 1.892 1.892 0 011.474.474 1.9 1.9 0 01.629 1.411v17.178h10.057v-9.486a1.9 1.9 0 011.9-1.895 1.9 1.9 0 011.9 1.895v9.486h9.483v-9.486a1.9 1.9 0 011.9-1.895 1.9 1.9 0 011.9 1.895v9.486h9.486v-9.486a1.894 1.894 0 011.9-1.895 1.9 1.9 0 011.9 1.895v9.486H59.8v-17.178a1.891 1.891 0 01.632-1.411 1.882 1.882 0 011.471-.474 15.879 15.879 0 001.69.091c8.537 0 15.748-6.949 15.748-15.177s-7.211-15.174-15.748-15.174a16.448 16.448 0 00-11.231 4.378 1.9 1.9 0 01-1.824.483 1.9 1.9 0 01-1.34-1.326 15.213 15.213 0 00-14.63-11.124 15.213 15.213 0 00-14.63 11.124 1.9 1.9 0 01-1.34 1.326 1.9 1.9 0 01-1.821-.483 16.46 16.46 0 00-11.233-4.378 16.024 16.024 0 00-14.173 8.657 1.892 1.892 0 01-2.549.831 1.9 1.9 0 01-.831-2.551 19.846 19.846 0 0117.553-10.733 20.92 20.92 0 0111.7 3.65A19.041 19.041 0 0134.565-10896a19.041 19.041 0 0117.329 11.238 20.934 20.934 0 0111.7-3.65c10.287 0 19.541 8.308 19.541 18.97s-9.254 18.972-19.541 18.972v32.251a1.894 1.894 0 01-1.9 1.9zm1.9-3.793H59.8v-11.384H9.333zM-14-10869.439a1.9 1.9 0 011.9-1.9 1.9 1.9 0 011.9 1.9 1.9 1.9 0 01-1.9 1.895 1.9 1.9 0 01-1.9-1.895z" transform="translate(14.001 10896)"/></symbol><symbol id="honest" viewBox="0 0 90.942 84.871"><path d="M83.769 9.263a26.271 26.271 0 00-37.18-1.081l-1.15 1.087a26.3 26.3 0 00-38.27 36.083l2.59 2.748a7.674 7.674 0 008.026 10.654 7.638 7.638 0 008.5 9.013 7.636 7.636 0 008.5 9.011 7.7 7.7 0 0012.852 7c8.65-8.167 8.379-7.759 9.2-9.136a7.655 7.655 0 0010.971-7.849 7.661 7.661 0 009.008-8.516 7.7 7.7 0 006.918-12.931 26.223 26.223 0 00.03-36.081zM13.436 54.355a4.688 4.688 0 01.191-6.618l7.882-7.437a4.681 4.681 0 016.424 6.8l-7.882 7.442a4.684 4.684 0 01-6.615-.187zm8.5 9.013a4.685 4.685 0 01.191-6.618l7.882-7.442a4.679 4.679 0 116.422 6.807l-7.882 7.444a4.685 4.685 0 01-6.613-.2zm8.5 9.011a4.687 4.687 0 01.193-6.616l7.882-7.442a4.679 4.679 0 016.424 6.8l-7.874 7.439a4.681 4.681 0 01-6.616-.188zm15.12 9.2a4.68 4.68 0 01-6.424-6.807l7.882-7.444a4.681 4.681 0 016.424 6.809zm35.861-27.457a4.667 4.667 0 01-6.613-.191l-20.2-21.4A1.516 1.516 0 1052.4 34.61l20.2 21.4a4.68 4.68 0 01-6.8 6.426l-20.2-21.4a1.516 1.516 0 00-2.205 2.081l20.2 21.4a4.675 4.675 0 01-5.745 7.253 7.652 7.652 0 00-7.382-8.749c-1.667-.044-1.061.587-1.019-1.081A7.708 7.708 0 0041.955 54c-1.667-.053-1.069.606-1.019-1.081a7.711 7.711 0 00-7.486-7.932c-1.678-.047-1.069.62-1.019-1.081a7.72 7.72 0 00-13-5.831c-10.838 10.23-7.1 6.7-7.906 7.467l-2.149-2.271a23.266 23.266 0 0133.857-31.919L30.819 23.075a6.292 6.292 0 00-1.933 4.3c-.152 6.225 9.108 10.145 14.767 4.79l11.314-10.677a1.516 1.516 0 012.143.061c2.974 3.151 21.645 22.938 24.5 25.959a4.678 4.678 0 01-.191 6.615zm.259-10.959l-22.362-23.7a4.547 4.547 0 00-6.428-.185L41.57 29.962a6.215 6.215 0 01-8.8-.271 3.119 3.119 0 01.135-4.415l15.762-14.89a23.27 23.27 0 0133.009 32.777z" transform="translate(-.005 -.999)"/></symbol><symbol id="instagram" viewBox="0 0 35.509 35.5"><path d="M17.753 10.886a9.1 9.1 0 109.1 9.1 9.087 9.087 0 00-9.1-9.1zm0 15.019a5.917 5.917 0 115.918-5.917 5.928 5.928 0 01-5.918 5.912zm11.6-15.391a2.123 2.123 0 11-2.123-2.123 2.118 2.118 0 012.121 2.123zm6.028 2.155c-.135-2.844-.784-5.363-2.868-7.438s-4.595-2.725-7.439-2.868c-2.931-.166-11.716-.166-14.647 0-2.836.135-5.355.784-7.439 2.86S.262 9.816.119 12.66c-.166 2.931-.166 11.716 0 14.647.135 2.844.781 5.363 2.868 7.438s4.595 2.725 7.439 2.868c2.931.166 11.716.166 14.647 0 2.844-.135 5.363-.784 7.439-2.868s2.725-4.594 2.868-7.438c.166-2.931.166-11.707-.001-14.639zm-3.788 17.783a5.991 5.991 0 01-3.375 3.375c-2.337.927-7.882.713-10.465.713s-8.136.206-10.465-.713a5.991 5.991 0 01-3.375-3.375C2.987 28.115 3.2 22.57 3.2 19.988s-.2-8.136.714-10.465a5.991 5.991 0 013.375-3.374c2.337-.927 7.882-.713 10.465-.713s8.136-.206 10.465.713a5.991 5.991 0 013.375 3.375c.927 2.337.713 7.882.713 10.464s.213 8.135-.714 10.464z" transform="translate(.005 -2.237)"/></symbol><symbol id="left" viewBox="0 0 12.754 20.653"><path d="M15.312 9l-2.427 2.427 7.883 7.9-7.883 7.9 2.427 2.427 10.327-10.327z" transform="rotate(180 12.82 14.826)"/></symbol><symbol id="linkedin-in" viewBox="0 0 147.137 147.134"><path d="M32.935 147.134H2.43V48.9h30.5zM17.666 35.5a17.75 17.75 0 1117.667-17.833A17.815 17.815 0 0117.666 35.5zM147.1 147.134h-30.435V99.315c0-11.4-.23-26.012-15.86-26.012-15.86 0-18.29 12.382-18.29 25.191v48.641H52.043V48.9H81.3v13.4h.427c4.073-7.718 14.021-15.863 28.862-15.863 30.872 0 36.548 20.33 36.548 46.736v53.961z" transform="translate(0 -.001)"/></symbol><symbol id="linkedin" viewBox="0 0 35.501 35.5"><path d="M32.966 2.25H2.528A2.547 2.547 0 000 4.809V35.19a2.547 2.547 0 002.528 2.56h30.438a2.553 2.553 0 002.534-2.56V4.809a2.553 2.553 0 00-2.534-2.559zM10.73 32.678H5.468V15.737h5.27v16.941zM8.1 13.423a3.051 3.051 0 113.051-3.051A3.052 3.052 0 018.1 13.423zm22.354 19.255h-5.262v-8.241c0-1.965-.04-4.493-2.734-4.493-2.742 0-3.162 2.139-3.162 4.35v8.384h-5.262V15.737h5.048v2.314h.071a5.542 5.542 0 014.984-2.734c5.325 0 6.316 3.51 6.316 8.075z" transform="translate(0 -2.25)"/></symbol><symbol id="phone" viewBox="0 0 27 27"><path d="M30 23.25a17.041 17.041 0 01-5.355-.855 1.531 1.531 0 00-1.53.36l-3.3 3.3A22.568 22.568 0 019.93 16.17l3.3-3.315a1.44 1.44 0 00.375-1.5A17.041 17.041 0 0112.75 6a1.5 1.5 0 00-1.5-1.5H6A1.5 1.5 0 004.5 6 25.5 25.5 0 0030 31.5a1.5 1.5 0 001.5-1.5v-5.25a1.5 1.5 0 00-1.5-1.5zM28.5 18h3A13.5 13.5 0 0018 4.5v3A10.492 10.492 0 0128.5 18zm-6 0h3a7.5 7.5 0 00-7.5-7.5v3a4.494 4.494 0 014.5 4.5z" transform="translate(-4.5 -4.5)"/></symbol><symbol id="reputed" viewBox="0 0 84.768 84.768"><path d="M45.9-10811.72l-12.541-12.538H15.426A29.46 29.46 0 01-14-10853.685a29.436 29.436 0 013.694-14.282 1.655 1.655 0 012.253-.643 1.656 1.656 0 01.64 2.253 26.118 26.118 0 00-3.276 12.672 26.144 26.144 0 0026.115 26.115h18.619a1.654 1.654 0 011.17.484l10.2 10.2v-9.617a1.654 1.654 0 011.315-1.621 26.217 26.217 0 0020.725-25.558 26.144 26.144 0 00-26.115-26.114h-2.086a1.655 1.655 0 01-1.654-1.654 1.657 1.657 0 011.654-1.657h2.086a29.46 29.46 0 0129.426 29.426 29.471 29.471 0 01-6.678 18.666 29.525 29.525 0 01-15.365 9.823v12.3a1.653 1.653 0 01-1.02 1.529 1.679 1.679 0 01-.634.128 1.651 1.651 0 01-1.169-.485zm-18.863-25.095a1.655 1.655 0 01-1.654-1.654 1.657 1.657 0 011.654-1.657h21.72a1.657 1.657 0 011.657 1.657 1.656 1.656 0 01-1.657 1.654zm-9.341 0a1.656 1.656 0 01-1.654-1.657 1.654 1.654 0 011.654-1.654h.027a1.654 1.654 0 011.654 1.654 1.656 1.656 0 01-1.654 1.657zm-9.686-8.83a1.656 1.656 0 01-1.657-1.654 1.656 1.656 0 011.657-1.657h40.747a1.656 1.656 0 011.657 1.657 1.656 1.656 0 01-1.657 1.654zm0-8.83a1.656 1.656 0 01-1.657-1.654 1.656 1.656 0 011.657-1.657h40.747a1.656 1.656 0 011.657 1.657 1.656 1.656 0 01-1.657 1.654zm0-8.83a1.655 1.655 0 01-1.657-1.654 1.656 1.656 0 011.657-1.657h40.747a1.656 1.656 0 011.657 1.657 1.655 1.655 0 01-1.657 1.654zm6.464-7.615a2.612 2.612 0 01-2.609-2.608v-8.617c0-10.916 6.24-13.558 11.471-13.853a1.66 1.66 0 011.231.451 1.652 1.652 0 01.52 1.2v4.952a1.658 1.658 0 01-1.507 1.651c-.853.076-2.707.246-3.161 3.6h3.013a2.612 2.612 0 012.609 2.608v8a2.612 2.612 0 01-2.609 2.608zm.7-11.226v7.914h7.556v-6.6h-4.067a1.656 1.656 0 01-1.657-1.654c0-5.6 2.551-7.591 4.769-8.264v-1.742c-3.21.603-6.598 2.731-6.598 10.346zm-17.624 11.226a2.612 2.612 0 01-2.609-2.608v-8.617c0-10.916 6.237-13.558 11.471-13.853a1.66 1.66 0 011.231.451 1.649 1.649 0 01.517 1.2v4.952a1.658 1.658 0 01-1.5 1.651c-.856.076-2.71.246-3.164 3.6h3.009a2.612 2.612 0 012.609 2.608v8a2.612 2.612 0 01-2.609 2.608zm.7-11.226v7.914H5.8v-6.6H1.736a1.657 1.657 0 01-1.657-1.654c0-5.6 2.554-7.591 4.769-8.264v-1.742c-3.21.603-6.595 2.731-6.595 10.346zm32.6 1.862a1.666 1.666 0 01-.487-1.17 1.66 1.66 0 01.487-1.171 1.66 1.66 0 011.17-.486 1.669 1.669 0 011.17.486 1.669 1.669 0 01.484 1.171 1.676 1.676 0 01-.484 1.17 1.676 1.676 0 01-1.17.484 1.666 1.666 0 01-1.163-.483z" transform="translate(14.001 10896.001)"/></symbol><symbol id="right" viewBox="0 0 12.754 20.654"><path d="M15.312 9l-2.427 2.427 7.883 7.9-7.883 7.9 2.427 2.427 10.327-10.327z" transform="translate(-12.885 -9)"/></symbol><symbol id="search" viewBox="0 0 23.274 23.278"><path d="M22.957 20.125l-4.532-4.532a1.09 1.09 0 00-.773-.318h-.741a9.451 9.451 0 10-1.637 1.637v.741a1.09 1.09 0 00.318.773l4.532 4.532a1.087 1.087 0 001.541 0l1.287-1.287a1.1 1.1 0 000-1.546zm-13.5-4.851a5.819 5.819 0 115.819-5.819 5.816 5.816 0 01-5.82 5.82z"/></symbol><symbol id="switch-logo-no-strapline" viewBox="0 0 213 52.252"><path d="M3661.572 6135.253c-10.622-.084-20.511-5.437-20.572-17.388v-.355h10.411c0 6.639 5.071 9.223 10.822 9.223 3.768 0 9.523-1.119 9.523-6.217 0-5.379-7.33-6.289-14.521-8.244-7.262-1.956-14.591-4.821-14.591-14.182 0-10.2 9.453-15.089 18.29-15.089 10.015 0 19.23 4.375 19.573 15.431h-10.457c-.6-5.47-4.646-6.91-9.594-6.91-3.426 0-7.4 1.468-7.4 5.659 0 3.843 2.329 4.334 14.591 7.548 3.563.906 14.524 3.213 14.524 14.529 0 9.087-6.962 15.9-20.08 16zm110.508-18.48c0-11.1 6.492-19.309 17.851-19.309 8.249 0 15.823 4.416 16.433 13.518h-9.4c-.61-4-3.111-6.138-7.1-6.138-6.154 0-8.182 6.342-8.182 11.584 0 5.1 1.961 11.24 7.979 11.24 4.464 0 7.032-2.895 7.641-7.24h9.264c-1.217 9.448-7.639 14.622-16.834 14.622-10.551 0-17.652-7.588-17.652-18.278zm-17.057 9.24v-21.031h-5.817v-6.55h5.817V6087.9h9.6v10.531h7.029v6.55h-7.029v17.652c0 3.31.81 4.14 4.053 4.14a14.478 14.478 0 002.976-.279v7.655a36.131 36.131 0 01-5.611.347c-5.88.004-11.018-1.382-11.018-8.483zm89.373 8.071v-8.069h9.6v8.069zm-129.267 0l-6.222-23.931h-.135l-5.95 23.931h-9.94l-11.088-35.654h10.142l6.424 24.206h.133l5.815-24.206h9.333l5.95 24.135h.136l6.422-24.135h9.872L3725 6134.084zm117.226 0v-20.135c0-5.861-1.688-8.756-6.153-8.756-5.208 0-7.44 2.965-7.44 10.2v18.688h-9.6V6087.9h9.6v15.5h.2a12.236 12.236 0 0110.21-5.932c10.211 0 12.781 5.862 12.781 14.689v21.929zm-94.71 0v-35.65h9.6v35.65z" transform="translate(-3641 -6083.001)"/></symbol><symbol id="switch-logo" viewBox="0 0 454.97 167.15"><path d="M179.43 106.99h-21.09l-13.29-50.12h-.29l-12.71 50.12h-21.23L87.14 32.32h21.66l13.72 50.7h.29l12.42-50.7h19.93l12.71 50.55h.29l13.72-50.55h21.09zm255.03-16.9h20.51v16.9h-20.51zM206.44 32.32h20.51v74.67h-20.51zm57.62 0h15V46h-15v37c0 6.93 1.73 8.66 8.66 8.66a31 31 0 006.36-.58v16a79.6 79.6 0 01-12 .72c-12.56 0-23.54-2.89-23.54-17.77V46h-12.41V32.32h12.42v-22h20.51zm69.08 26.29c-1.3-8.38-6.64-12.86-15.16-12.86C304.83 45.75 300.5 59 300.5 70c0 10.68 4.19 23.54 17 23.54 9.54 0 15-6.07 16.32-15.17h19.79c-2.6 19.79-16.32 30.63-36 30.63-22.53 0-37.7-15.9-37.7-38.28 0-23.26 13.87-40.44 38.13-40.44 17.62 0 33.8 9.25 35.1 28.31zm26.06-48.34h20.51v32.45h.43A26.22 26.22 0 01402 30.3c21.81 0 27.3 12.27 27.3 30.76V107h-20.56V64.82c0-12.28-3.61-18.34-13.15-18.34-11.12 0-15.88 6.21-15.88 21.37V107H359.2zM56.92 45.51c-26.19-6.73-31.16-7.76-31.16-15.81 0-8.78 8.48-11.85 15.8-11.85 10.57 0 19.21 3 20.49 14.47h22.34C83.66 9.16 64 0 42.58 0 23.71 0 3.51 10.24 3.51 31.61c0 19.6 15.66 25.6 31.17 29.7s31 6 31 17.27c0 10.67-12.29 13-20.34 13-12.29 0-23.12-5.42-23.12-19.32H0C-.29 98 21.37 109.45 44.48 109.45c28.39 0 43.46-14.34 43.46-33.51 0-23.7-23.41-28.53-31-30.43m-29.06 99.14a16.12 16.12 0 00-.75-5.07 11.83 11.83 0 00-2.17-4 9.7 9.7 0 00-3.33-2.53 10.18 10.18 0 00-4.39-.92h-3.32v21.4a2.74 2.74 0 001 2.48 6 6 0 003.2.68 10.07 10.07 0 004.36-.88 7.93 7.93 0 003-2.45 10.93 10.93 0 001.78-3.82 20.37 20.37 0 00.56-5m4.81 0a13.23 13.23 0 01-1.34 6.16 12.34 12.34 0 01-3.47 4.28 15 15 0 01-4.85 2.5 18.85 18.85 0 01-5.56.82H5.93V157a13.73 13.73 0 001.48-.11 4.83 4.83 0 001.21-.24 1.77 1.77 0 00.85-.76 2.52 2.52 0 00.27-1.21v-20.07a3.09 3.09 0 00-.23-1.2 1.71 1.71 0 00-.89-.84 5.24 5.24 0 00-1.32-.43c-.47-.09-.88-.15-1.22-.18v-1.39h12.18a16.49 16.49 0 014.95.77 14.87 14.87 0 014.24 2.1A12.1 12.1 0 0131.3 138a14.89 14.89 0 011.39 6.66m14.79 1.83a16.73 16.73 0 00-.19-2.35 7.53 7.53 0 00-.6-2.09 4 4 0 00-1.24-1.47 3.33 3.33 0 00-2-.57 4.19 4.19 0 00-3.45 1.72 8 8 0 00-1.48 4.76zm4.33 7.39a9.89 9.89 0 01-3.26 3.69 8.23 8.23 0 01-4.69 1.37 9.59 9.59 0 01-4.1-.82 8.07 8.07 0 01-2.89-2.24 9.57 9.57 0 01-1.7-3.3 14.09 14.09 0 01-.56-4 11.75 11.75 0 01.6-3.7 10.34 10.34 0 011.79-3.26 8.26 8.26 0 012.78-2.24 7.85 7.85 0 013.72-.86 8.88 8.88 0 013.63.67 6.33 6.33 0 012.42 1.81 7.35 7.35 0 011.35 2.59 11.61 11.61 0 01.44 3.25v1.29H38.52a15.48 15.48 0 00.36 3.47 8.51 8.51 0 001.12 2.74 5.42 5.42 0 002 1.8 6.21 6.21 0 002.95.66 5.42 5.42 0 003-.82 8.14 8.14 0 002.49-2.98zM66.64 149a4.85 4.85 0 011.23 1.63 5.26 5.26 0 01.44 2.26 5.48 5.48 0 01-2 4.39 8.58 8.58 0 01-8.32 1.1 8.18 8.18 0 01-2-1.12l-.39 1.28h-1.53l-.2-6.73h1.36a7.26 7.26 0 00.66 1.79 9.2 9.2 0 001.24 1.85 6.82 6.82 0 001.87 1.41 4.9 4.9 0 002.4.59 4.41 4.41 0 002.91-.86 3.42 3.42 0 00.7-3.88 3.25 3.25 0 00-1-1.05 8.21 8.21 0 00-1.6-.82c-.63-.24-1.33-.48-2.1-.71a21.69 21.69 0 01-2-.76 8.11 8.11 0 01-1.93-1.13 5.54 5.54 0 01-1.42-1.69 4.89 4.89 0 01-.55-2.35 5.29 5.29 0 011.77-4 6.66 6.66 0 014.73-1.65 10 10 0 012.33.29 8.29 8.29 0 011.93.71l.46-1H67l.29 6.22H66a6.32 6.32 0 00-1.78-3.4 4.64 4.64 0 00-3.38-1.37 3.7 3.7 0 00-2.53.81 2.51 2.51 0 00-.92 2 3.21 3.21 0 00.3 1.47 2.63 2.63 0 00.91 1 7.38 7.38 0 001.49.74c.59.23 1.33.49 2.21.78a17.69 17.69 0 012.44 1 8 8 0 011.9 1.22m10.51-17.83a2.87 2.87 0 01-.73 2 2.36 2.36 0 01-3.56 0 2.61 2.61 0 01-.73-1.82 2.7 2.7 0 01.73-1.88 2.29 2.29 0 011.74-.81 2.44 2.44 0 011.84.76 2.49 2.49 0 01.71 1.75m2.46 27.24h-9.35v-1.3l.94-.07a3.6 3.6 0 00.83-.16 1.44 1.44 0 00.82-.61 2.3 2.3 0 00.26-1.15v-11.95a2.47 2.47 0 00-.28-1.15 2.66 2.66 0 00-.8-.87 3.56 3.56 0 00-1.08-.4 8.6 8.6 0 00-1.29-.21v-1.29l6.83-.43.27.27v15.79A2.21 2.21 0 0077 156a1.51 1.51 0 00.83.66 5.87 5.87 0 00.83.29 4.94 4.94 0 00.92.14zm12.08-13.49a6.4 6.4 0 00-.93-3.66 3 3 0 00-2.62-1.37 3.07 3.07 0 00-1.59.39 3 3 0 00-1.06 1.09 4.56 4.56 0 00-.57 1.56 10.44 10.44 0 00-.16 1.88 6.17 6.17 0 00.95 3.55 2.87 2.87 0 002.46 1.37 3 3 0 002.61-1.36 6.15 6.15 0 00.91-3.45m3.77 16.24a3 3 0 00-.51-1.81 2.6 2.6 0 00-1.55-1c-.37 0-1.12-.11-2.26-.17s-2.46-.1-4-.1a5.36 5.36 0 00-3 1.38 3.55 3.55 0 00-.89 2.51 2.9 2.9 0 001.31 2.47 5.5 5.5 0 001.85.83 10.42 10.42 0 002.83.33 8.09 8.09 0 004.54-1.11 3.77 3.77 0 001.66-3.37m1.56-4.71a5.63 5.63 0 011.24 1.69 5.42 5.42 0 01.45 2.34 5.8 5.8 0 01-.61 2.62 5.71 5.71 0 01-1.85 2.12 10 10 0 01-3.13 1.44 17.11 17.11 0 01-4.52.51q-4.39 0-6.58-1.29a4.11 4.11 0 01-2.18-3.75 3.72 3.72 0 011.57-3.17 7 7 0 014-1.25v-.28a11.29 11.29 0 01-1.22-.44 4.64 4.64 0 01-1.08-.62 3.29 3.29 0 01-.82-1A2.79 2.79 0 0182 154a2.91 2.91 0 01.74-1.92 5.8 5.8 0 012.23-1.5v-.3A7.49 7.49 0 0182 148a5.26 5.26 0 01-1-3.22 5.68 5.68 0 012-4.51 7.76 7.76 0 015.25-1.77 8.69 8.69 0 011.76.18 17.85 17.85 0 011.78.45h6.75V141H94v.12a5.75 5.75 0 011.07 1.88 6.24 6.24 0 01.35 2 5.48 5.48 0 01-2.07 4.32 7.2 7.2 0 01-4.82 1.77h-2.38a2.92 2.92 0 00-.94.57 1.35 1.35 0 00-.49 1.11 1.48 1.48 0 00.41 1.12 2.23 2.23 0 001 .52 6.16 6.16 0 001.33.19q.75 0 1.56.06c.57 0 1.36 0 2.36.12s1.72.1 2.14.11a5.27 5.27 0 011.81.44 5.65 5.65 0 011.67 1.1m24.66 2h-9.46v-1.3l1-.07a3.75 3.75 0 00.89-.16 1.41 1.41 0 00.82-.62 2.28 2.28 0 00.26-1.15v-9.95a4.67 4.67 0 00-1-3.18 3 3 0 00-2.38-1.12 5.49 5.49 0 00-1.9.32 6.77 6.77 0 00-1.54.8 4.19 4.19 0 00-1 1 6.35 6.35 0 00-.56.83v11.14a2.06 2.06 0 00.27 1.1 1.74 1.74 0 00.83.66 4 4 0 00.89.3 7.87 7.87 0 001 .13v1.3h-9.48v-1.3l.93-.07a3.6 3.6 0 00.83-.16 1.44 1.44 0 00.82-.61 2.3 2.3 0 00.26-1.15v-11.98a2.71 2.71 0 00-.28-1.23 2.41 2.41 0 00-.8-.91 2.49 2.49 0 00-.88-.34 8.86 8.86 0 00-1.1-.15v-1.29l6.44-.43.28.27v2.73h.09c.32-.31.71-.69 1.18-1.13a9.62 9.62 0 011.34-1.07 7.11 7.11 0 011.73-.79 7.53 7.53 0 012.26-.31 4.89 4.89 0 014.13 1.74 7.31 7.31 0 011.34 4.62V155a2.25 2.25 0 00.24 1.11 1.54 1.54 0 00.81.65 4.92 4.92 0 00.81.28 6.08 6.08 0 001 .11zm7.5-2.26a2.52 2.52 0 01-.79 1.88 2.72 2.72 0 01-3.79 0 2.53 2.53 0 01-.8-1.88 2.69 2.69 0 015.38 0m26.57-6.02a5.38 5.38 0 00-1.66-4.07 6.56 6.56 0 00-4.74-1.59h-3.42v9.82a2.05 2.05 0 001 1.86 5.22 5.22 0 002.79.63 5.72 5.72 0 004.47-1.71 7.2 7.2 0 001.55-5m-2.72-8.85a4.8 4.8 0 001-1.85 8.7 8.7 0 00.28-2.37 5 5 0 00-1.25-3.61 5.29 5.29 0 00-4-1.31h-1.58l-1.6.05v10.75h2.49a8.32 8.32 0 002.76-.41 4.28 4.28 0 001.85-1.25m4.75 4.21a6.87 6.87 0 012 2.16 6.23 6.23 0 01.8 3.24 6.57 6.57 0 01-.84 3.38 7.3 7.3 0 01-2.2 2.36 10.09 10.09 0 01-3 1.37 12.68 12.68 0 01-3.43.47h-13.2V157c.32 0 .77-.08 1.37-.17a4.89 4.89 0 001.3-.3 1.8 1.8 0 00.87-.74 2.44 2.44 0 00.25-1.19v-20a2.84 2.84 0 00-.22-1.17 1.68 1.68 0 00-.9-.83 5.61 5.61 0 00-1.31-.45 9.51 9.51 0 00-1.22-.2v-1.39h12.86a13.94 13.94 0 012.86.29 8.69 8.69 0 012.6 1 5.69 5.69 0 011.91 1.87 5.22 5.22 0 01.74 2.87 6.25 6.25 0 01-.53 2.62 5.75 5.75 0 01-1.49 2 8.74 8.74 0 01-2.07 1.33 12.3 12.3 0 01-2.53.83v.18a14.58 14.58 0 012.69.6 9.52 9.52 0 012.64 1.28m19.35-3.87a3.24 3.24 0 01-.49 1.78 1.66 1.66 0 01-1.51.78 2.31 2.31 0 01-1.68-.57 1.72 1.72 0 01-.58-1.26 4.74 4.74 0 01.07-.79c.05-.23.09-.47.13-.7a4.31 4.31 0 00-2.16.75 6.18 6.18 0 00-2.1 2.12v11.27a2.09 2.09 0 00.26 1.12 1.59 1.59 0 00.84.64 5.43 5.43 0 001.26.3c.52.06 1 .11 1.35.13v1.3h-10.21v-1.3l.93-.07a3.6 3.6 0 00.83-.16 1.44 1.44 0 00.82-.61 2.3 2.3 0 00.26-1.15v-11.95a2.77 2.77 0 00-.28-1.2 2.36 2.36 0 00-.8-.94 2.49 2.49 0 00-.88-.34 8.86 8.86 0 00-1.1-.15v-1.29l6.44-.43.28.27v2.73h.09a8.82 8.82 0 012.71-2.41 5.66 5.66 0 012.73-.83 2.67 2.67 0 012 .81 3 3 0 01.77 2.15m11.95 6.15c-1.11.33-2.09.65-2.92 1a11.7 11.7 0 00-2.34 1.19 5.29 5.29 0 00-1.55 1.58 4 4 0 00-.57 2.17 3.1 3.1 0 00.85 2.41 3.14 3.14 0 002.17.76 4.42 4.42 0 002.46-.68 7 7 0 001.78-1.6zm6.86 10.37q-.93.33-1.62.54a5.54 5.54 0 01-1.58.21 3.9 3.9 0 01-2.45-.72A3.32 3.32 0 01189 156h-.12a9.69 9.69 0 01-2.73 2.16 7.83 7.83 0 01-3.53.74 5 5 0 01-3.58-1.33 4.6 4.6 0 01-1.41-3.5 5.91 5.91 0 01.32-2 4.59 4.59 0 01.94-1.59 4.76 4.76 0 011.29-1.05 11 11 0 011.52-.74c.58-.22 1.78-.63 3.58-1.24a27.07 27.07 0 003.65-1.41v-1.94a7.62 7.62 0 00-.12-1 4 4 0 00-.46-1.37 3.92 3.92 0 00-1.11-1.27 3.29 3.29 0 00-2-.53 4.44 4.44 0 00-1.68.3 3 3 0 00-1.09.64 5 5 0 00.19 1.15 6.39 6.39 0 01.19 1.42 1.72 1.72 0 01-.62 1.26 2.45 2.45 0 01-1.72.57 1.61 1.61 0 01-1.44-.7 2.73 2.73 0 01.17-3.29 6.67 6.67 0 011.66-1.48 9.69 9.69 0 012.14-.93 8.61 8.61 0 012.46-.38 16 16 0 012.87.23 5.25 5.25 0 012.23 1 4.43 4.43 0 011.52 2 8.34 8.34 0 01.53 3.21c0 1.87 0 3.53-.07 5s-.06 3-.06 4.74a2.48 2.48 0 00.27 1.22 2.27 2.27 0 00.82.77 2 2 0 00.93.19h1.31zm22.9.35h-9.46v-1.3l1-.07a3.75 3.75 0 00.89-.16 1.41 1.41 0 00.82-.62 2.18 2.18 0 00.26-1.15v-9.95a4.67 4.67 0 00-1-3.18 3 3 0 00-2.37-1.12 5.5 5.5 0 00-1.91.32 6.77 6.77 0 00-1.54.8 4.19 4.19 0 00-1 1 6.35 6.35 0 00-.56.83v11.14a2.06 2.06 0 00.27 1.1 1.74 1.74 0 00.83.66 4 4 0 00.89.3 7.79 7.79 0 001 .13v1.3h-9.49v-1.3l.93-.07a3.6 3.6 0 00.83-.16 1.44 1.44 0 00.82-.61 2.2 2.2 0 00.26-1.15v-11.98a2.71 2.71 0 00-.28-1.23 2.41 2.41 0 00-.8-.91 2.49 2.49 0 00-.88-.34 8.86 8.86 0 00-1.1-.15v-1.29l6.44-.43.28.27v2.73h.1c.31-.31.7-.69 1.17-1.13a10.25 10.25 0 011.34-1.07 7.11 7.11 0 011.73-.79 7.53 7.53 0 012.26-.31 4.89 4.89 0 014.13 1.74 7.31 7.31 0 011.34 4.62V155a2.25 2.25 0 00.24 1.11 1.54 1.54 0 00.81.65 4.92 4.92 0 00.81.28 6.08 6.08 0 00.95.11zm14.87-3.75v-11.33a5.06 5.06 0 00-.51-1.1 5 5 0 00-.88-1.08 4.78 4.78 0 00-1.33-.81 4.5 4.5 0 00-1.79-.33 4 4 0 00-2.16.61 5.86 5.86 0 00-1.76 1.75 9 9 0 00-1.14 2.8 15.6 15.6 0 00-.43 3.76 13.05 13.05 0 00.32 3 7.8 7.8 0 001.06 2.5 5.39 5.39 0 001.75 1.77 4.65 4.65 0 002.54.67 4.6 4.6 0 002.6-.69 8.57 8.57 0 001.73-1.51m7.11 3.4l-6.77.43-.3-.27v-1.81h-.16a8.13 8.13 0 01-2.52 1.87 7.05 7.05 0 01-3.08.72 7.17 7.17 0 01-3.19-.74 8 8 0 01-2.68-2.07 10.15 10.15 0 01-1.83-3.25 12.56 12.56 0 01-.68-4.21 10.82 10.82 0 01.73-4 10.38 10.38 0 012-3.3 8.62 8.62 0 012.93-2.1 8.43 8.43 0 013.54-.79 10.43 10.43 0 012.66.34 9.87 9.87 0 012.24.88V133a4.06 4.06 0 00-.27-1.51 2.36 2.36 0 00-.77-1 3.82 3.82 0 00-1.48-.54 19.56 19.56 0 00-2-.25v-1.21L237 128l.29.3v26.1a2.31 2.31 0 00.27 1.16 2.15 2.15 0 00.77.82 2.53 2.53 0 001.08.3c.47 0 .91.06 1.3.07zm7.41-1.92a2.52 2.52 0 01-.79 1.88 2.72 2.72 0 01-3.79 0 2.53 2.53 0 01-.8-1.88 2.69 2.69 0 015.38 0m31.12-11.52a16.12 16.12 0 00-.75-5.07 11.68 11.68 0 00-2.18-4 9.51 9.51 0 00-3.33-2.53 10.14 10.14 0 00-4.38-.92h-3.33v21.4a2.75 2.75 0 001 2.48 6 6 0 003.19.68 10.12 10.12 0 004.37-.88 7.93 7.93 0 003-2.45 11.11 11.11 0 001.78-3.82 20.37 20.37 0 00.56-5m4.81 0a13.36 13.36 0 01-1.34 6.16 12.57 12.57 0 01-3.47 4.28 15 15 0 01-4.85 2.5 18.9 18.9 0 01-5.56.82h-11.48V157a13.89 13.89 0 001.49-.11 4.72 4.72 0 001.2-.24 1.75 1.75 0 00.86-.76 2.64 2.64 0 00.26-1.21v-20.07a2.92 2.92 0 00-.23-1.2 1.64 1.64 0 00-.89-.84 5 5 0 00-1.31-.43c-.47-.09-.88-.15-1.22-.18v-1.39h12.17a16.4 16.4 0 014.95.77 14.8 14.8 0 014.25 2.1 12.07 12.07 0 013.84 4.57 14.89 14.89 0 011.4 6.66m9.45-13.48a2.87 2.87 0 01-.73 2 2.36 2.36 0 01-3.56 0 2.61 2.61 0 01-.73-1.82 2.7 2.7 0 01.73-1.88 2.29 2.29 0 011.74-.81 2.44 2.44 0 011.84.76 2.49 2.49 0 01.71 1.75m2.46 27.24h-9.35v-1.3l.94-.07a3.82 3.82 0 00.83-.16 1.44 1.44 0 00.82-.61 2.3 2.3 0 00.26-1.15v-11.95a2.37 2.37 0 00-.29-1.15 2.52 2.52 0 00-.79-.87 3.56 3.56 0 00-1.08-.4 8.52 8.52 0 00-1.3-.21v-1.29l6.84-.43.27.27v15.79a2.21 2.21 0 00.27 1.14 1.52 1.52 0 00.82.66 6.46 6.46 0 00.84.29 4.81 4.81 0 00.92.14zM308 144.94a6.32 6.32 0 00-.94-3.66 3 3 0 00-2.62-1.37 3.06 3.06 0 00-1.58.39 3 3 0 00-1.07 1.09 4.56 4.56 0 00-.56 1.56 10.43 10.43 0 00-.17 1.88 6.1 6.1 0 001 3.55 2.86 2.86 0 002.46 1.37 2.94 2.94 0 002.6-1.36 6.07 6.07 0 00.92-3.45m3.77 16.24a3.05 3.05 0 00-.52-1.81 2.54 2.54 0 00-1.55-1c-.36 0-1.12-.11-2.25-.17s-2.46-.1-4-.1a5.39 5.39 0 00-3 1.38 3.6 3.6 0 00-.89 2.51 2.9 2.9 0 001.31 2.47 5.59 5.59 0 001.85.83 10.47 10.47 0 002.83.33 8.12 8.12 0 004.55-1.11 3.79 3.79 0 001.66-3.37m1.53-4.75a5.77 5.77 0 011.23 1.69 5.28 5.28 0 01.46 2.34 5.93 5.93 0 01-.61 2.62 5.8 5.8 0 01-1.85 2.12 10.1 10.1 0 01-3.14 1.44 17.06 17.06 0 01-4.52.51q-4.39 0-6.58-1.29a4.1 4.1 0 01-2.17-3.75 3.72 3.72 0 011.57-3.17 7 7 0 014-1.25v-.28a11.15 11.15 0 01-1.21-.44 4.71 4.71 0 01-1.09-.62 3.45 3.45 0 01-.82-1 2.79 2.79 0 01-.31-1.38 2.9 2.9 0 01.73-1.92 5.88 5.88 0 012.23-1.5v-.3a7.57 7.57 0 01-2.93-2.26 5.26 5.26 0 01-1-3.22 5.71 5.71 0 012.05-4.51 7.78 7.78 0 015.26-1.77 8.69 8.69 0 011.76.18 17.68 17.68 0 011.77.45h6.76V141h-4.56v.12a5.41 5.41 0 011.08 1.87 6 6 0 01.35 2 5.47 5.47 0 01-2.06 4.32 7.2 7.2 0 01-4.83 1.77h-2.38a3 3 0 00-.94.57 1.38 1.38 0 00-.49 1.11 1.45 1.45 0 00.42 1.12 2.13 2.13 0 001 .52 6.15 6.15 0 001.32.19c.51 0 1 0 1.57.06s1.36 0 2.36.12 1.71.1 2.13.11a5.32 5.32 0 011.82.44 5.93 5.93 0 011.66 1.08m10.54-25.21a2.87 2.87 0 01-.73 2 2.36 2.36 0 01-3.56 0 2.61 2.61 0 01-.73-1.82 2.7 2.7 0 01.73-1.88 2.29 2.29 0 011.74-.81 2.51 2.51 0 012.55 2.51m2.46 27.24H317v-1.3l.93-.07a3.69 3.69 0 00.84-.16 1.38 1.38 0 00.81-.61 2.2 2.2 0 00.27-1.15v-11.95a2.47 2.47 0 00-.28-1.15 2.66 2.66 0 00-.8-.87 3.56 3.56 0 00-1.08-.4 8.52 8.52 0 00-1.3-.21v-1.29l6.84-.43.27.27v15.79a2.21 2.21 0 00.27 1.14 1.52 1.52 0 00.82.66 6.46 6.46 0 00.84.29 4.94 4.94 0 00.92.14zm12.35-.84c-.86.35-1.66.65-2.42.89a9.36 9.36 0 01-2.79.36 4.16 4.16 0 01-3.42-1.22 5.35 5.35 0 01-1-3.47V141h-3.5v-1.88h3.57v-6h3.58v6h5.55V141h-5.51v10.82a19.31 19.31 0 00.08 2 3.69 3.69 0 00.43 1.43 2 2 0 00.94.86 4 4 0 001.69.3q.48 0 1.44-.09a7.58 7.58 0 001.35-.22zm12.6-9.88c-1.11.33-2.09.65-2.92 1a11.7 11.7 0 00-2.34 1.19 5.29 5.29 0 00-1.55 1.58 4 4 0 00-.58 2.17 2.82 2.82 0 003 3.17 4.42 4.42 0 002.46-.68 7 7 0 001.78-1.6zm6.86 10.37q-.93.33-1.62.54a5.54 5.54 0 01-1.58.21 3.9 3.9 0 01-2.45-.72 3.32 3.32 0 01-1.17-2.09h-.12a9.59 9.59 0 01-2.74 2.16 7.75 7.75 0 01-3.52.74 5 5 0 01-3.58-1.33 4.6 4.6 0 01-1.41-3.5 5.91 5.91 0 01.32-2 4.75 4.75 0 01.94-1.59 4.67 4.67 0 011.3-1.05 10.43 10.43 0 011.51-.74c.58-.22 1.78-.63 3.58-1.24a26.77 26.77 0 003.64-1.41v-1.94a7 7 0 00-.11-1 4.17 4.17 0 00-.45-1.37 4.08 4.08 0 00-1.12-1.27 3.29 3.29 0 00-2-.53 4.44 4.44 0 00-1.68.3 3 3 0 00-1.09.64 5.57 5.57 0 00.19 1.15 6.34 6.34 0 01.18 1.42 1.7 1.7 0 01-.61 1.26 2.45 2.45 0 01-1.72.57 1.61 1.61 0 01-1.44-.7 2.73 2.73 0 01.17-3.29 6.67 6.67 0 011.66-1.48 9.49 9.49 0 012.14-.93 8.61 8.61 0 012.46-.38 16 16 0 012.87.23 5.25 5.25 0 012.23 1 4.6 4.6 0 011.53 2 8.55 8.55 0 01.52 3.21c0 1.87 0 3.53-.07 5s-.06 3-.06 4.74a2.48 2.48 0 00.27 1.22 2.27 2.27 0 00.82.77 2.06 2.06 0 00.93.19h1.31zm11.19.35h-9.44v-1.3l1-.08a4 4 0 00.84-.15 1.43 1.43 0 00.83-.62 2.08 2.08 0 00.28-1.15v-22.44a3.05 3.05 0 00-.31-1.33 2.56 2.56 0 00-.8-1 3.84 3.84 0 00-1.29-.43 12.89 12.89 0 00-1.51-.24v-1.25l7.28-.44.28.3v26.6a2.15 2.15 0 00.26 1.13 1.57 1.57 0 00.81.67 5.53 5.53 0 00.86.3 6.23 6.23 0 00.95.13zm7.16-2.26a2.52 2.52 0 01-.79 1.88 2.72 2.72 0 01-3.79 0 2.5 2.5 0 01-.8-1.88 2.55 2.55 0 01.8-1.89 2.69 2.69 0 014.58 1.89"/></symbol><symbol id="theme-logo"><defs><clipPath id="a"><path fill="none" d="M0 0h77.062v84.604H0z" data-name="Rectangle 182"/></clipPath></defs><g data-name="Group 132"><g fill="#020c30" data-name="Group 127"><path d="M318.611 38.205c0 2.9-2.22 6.263-5.359 6.263a3.127 3.127 0 01-3.359-3.176c0-3.492 5.491-3.859 7.763-3.859h.956v.772zm8.807 10.034v-4.315h-3.07l-.015-10.262c0-5.9-3.315-9.123-9.534-9.123a15.708 15.708 0 00-9.167 2.86l2.132 3.992a12.758 12.758 0 016.535-2.227c2.4 0 4.264 1.044 4.264 3.992v.772h-1.456c-3.72 0-13.026.728-13.026 7.807 0 4.719 3.72 7.035 7.675 7.035a8.051 8.051 0 007.307-4.447h.085l-.015 3.9h8.277v.015z" data-name="Path 111"/><path d="M179.822 29.398h2.815l7.035 18.841h6.623l7.079-18.841h2.771v-4.315h-11.123v4.315h2.632l-4.043 11.438a12.712 12.712 0 00-.544 2.543h-.132a11.178 11.178 0 00-.588-2.543l-3.992-11.438h2.588v-4.315h-11.121z" data-name="Path 112"/><path d="M223.922 34.073h-10.079c.544-3.043 2.632-5.087 5.587-5.087 2.448 0 4.4 1.9 4.492 5.087m5.947 1.456c0-6.131-3.631-10.983-10.306-10.983s-11.755 4.991-11.755 12.122c0 6.579 4.764 12.122 12.438 12.122a14.751 14.751 0 009.351-3.22l-2.22-4.084a11.7 11.7 0 01-6.719 2.448 6.668 6.668 0 01-6.947-6.448h16.027s.132-1.272.132-1.948" data-name="Path 113"/><path d="M233.64 48.239h12.438v-4.315h-3.315v-6.079c0-4.043 2.448-8.035 6.631-8.035 2.9 0 3.676 1.9 3.676 4.719v13.71h9.079v-4.315h-3.359V33.346c0-6.131-2.815-8.807-7.763-8.807a9.289 9.289 0 00-8.535 5.175l.074-4.631h-9.154v4.315l3.587-.015v14.54h-3.359v4.316z" data-name="Path 114"/><path d="M287.428 31.125h-5.359v-10.35h4.359a9.141 9.141 0 013.631.588c1.772.728 2.543 2.36 2.543 4.447 0 3.448-2.044 5.308-5.175 5.308m13.57 17.121v-4.448h-3.014l-5.521-9.439v-.091c3.72-1.272 6.079-4.447 6.079-8.946s-2.36-7.447-5.947-8.623a21.12 21.12 0 00-6.131-.684h-14.208V20.5h3.86v23.291h-3.86v4.447h13.526v-4.447h-3.72v-7.9h4.977l6.984 12.35h6.976z" data-name="Path 115"/><path d="M375.994 36.8c0 4.947-2.815 7.123-5.859 7.123-3.359 0-5.719-2.86-5.719-7.263s2.632-7.175 5.9-7.175c3.815 0 5.675 3.543 5.675 7.307m8.667 11.446v-4.314h-3.021l-.066-27.92h-9.306v4.315h3.587l.088 7.491s-1.816-3.271-6.763-3.271c-6.263 0-10.578 4.764-10.578 12.122s3.948 12.122 10.122 12.122c5.763 0 7.579-4.315 7.579-4.315v3.764h8.358z" data-name="Path 116"/><path d="M347.368 36.8c0 4.947-2.815 7.123-5.859 7.123-3.359 0-5.719-2.86-5.719-7.263s2.632-7.175 5.9-7.175c3.815 0 5.675 3.543 5.675 7.307m8.674 11.446v-4.314h-3.021l-.066-27.92h-9.307v4.315h3.587l.088 7.491s-1.816-3.271-6.763-3.271c-6.263 0-10.578 4.764-10.578 12.122s3.948 12.122 10.122 12.122c5.763 0 7.579-4.315 7.579-4.315v3.764h8.358z" data-name="Path 117"/></g><path fill="#020c30" d="M150.264 44.334H146.5V21.046h2.926v-4.962h-10.909l-7.645 21.723-7.653-21.723H112.31v4.962h2.926v23.288h-3.764v4.447h13.21v-4.447h-3.587V27.596l7.792 21.186h3.965l7.792-21.186v16.738h-3.592v4.447h13.21z" data-name="Path 179"/><g fill="#020c30" data-name="Group 128"><path d="M169.207 38.204c0 2.9-2.227 6.263-5.359 6.263a3.127 3.127 0 01-3.364-3.179c0-3.492 5.491-3.859 7.763-3.859h.956v.772zm8.8 10.034v-4.315h-3.073l-.015-10.262c0-5.9-3.315-9.123-9.534-9.123a15.708 15.708 0 00-9.167 2.86l2.132 3.992a12.758 12.758 0 016.535-2.227c2.4 0 4.271 1.044 4.271 3.992v.772H167.7c-3.72 0-13.026.728-13.026 7.807 0 4.719 3.72 7.035 7.667 7.035a8.051 8.051 0 007.307-4.447h.088l-.015 3.9h8.277v.015z" data-name="Path 119"/><path d="M382.728 59.477c-.044-1.184-.882-1.7-1.977-1.7-.978 0-1.948.478-1.948 1.573 0 .985.867 1.235 1.72 1.426s1.713.316 1.713 1.051c0 .772-.713.978-1.36.978-.816 0-1.566-.39-1.566-1.294h-.676c0 1.309 1.014 1.9 2.22 1.9.978 0 2.1-.456 2.1-1.6 0-1.051-.86-1.353-1.713-1.551s-1.72-.294-1.72-.956c0-.7.6-.919 1.206-.919a1.173 1.173 0 011.331 1.1zm-12.879 3.8h.676v-4.465h.015l1.676 4.469h.61l1.676-4.469h.015v4.469h.676v-5.374h-.978l-1.7 4.514-1.691-4.514h-.978v5.374zm-5.616-4.727h.015l.9 2.507h-1.823zm-2.47 4.727h.735l.6-1.617h2.272l.588 1.617h.794l-2.1-5.374h-.787l-2.1 5.374zm-6.52 0h3.727v-.6h-3.014v-1.865h2.793v-.6h-2.793v-1.7h2.992v-.6h-3.7v5.374zm-5.653 0h.713v-4.765h1.786v-.6h-4.293v.6h1.794v4.771zm-12.607 0h3.557v-.6h-2.845v-4.771h-.713zm-5.6-4.727h.015l.9 2.507h-1.823l.912-2.507zm-2.47 4.727h.735l.6-1.617h2.271l.588 1.617h.787l-2.1-5.374H331zm-3.426 0h.448v-2.83h-2.352v.6h1.713a1.621 1.621 0 01-1.72 1.757 1.934 1.934 0 01-1.845-2.147c0-1.125.544-2.279 1.845-2.279a1.454 1.454 0 011.6 1.184h.713a2.086 2.086 0 00-2.308-1.786c-1.7 0-2.558 1.353-2.558 2.918a2.573 2.573 0 002.558 2.705 2.107 2.107 0 001.72-.794l.191.669zm-11.357 0h3.734v-.6h-3.014v-1.865h2.79v-.6h-2.793v-1.7h2.993v-.6h-3.7v5.374zm-6.741 0h3.551v-.6h-2.845v-4.771h-.713zm-11.806 0h3.727v-.6h-3.014v-1.865h2.793v-.6h-2.793v-1.7h2.992v-.6h-3.7zm-3.646-3.8c-.044-1.184-.882-1.7-1.977-1.7-.978 0-1.948.478-1.948 1.573 0 .985.867 1.235 1.72 1.426s1.713.316 1.713 1.051c0 .772-.713.978-1.36.978-.816 0-1.566-.39-1.566-1.294h-.679c0 1.309 1.014 1.9 2.22 1.9.978 0 2.1-.456 2.1-1.6 0-1.051-.86-1.353-1.713-1.551s-1.72-.294-1.72-.956c0-.7.6-.919 1.206-.919a1.173 1.173 0 011.331 1.1h.676zm-7.491-1.573h-.713v3.433a1.3 1.3 0 01-1.4 1.47 1.362 1.362 0 01-1.492-1.47v-3.433h-.713v3.433c0 1.426.816 2.066 2.205 2.066a1.868 1.868 0 002.117-2.066zm-12.144 2.683c0-1.081.551-2.213 1.86-2.213s1.86 1.125 1.86 2.213-.551 2.213-1.86 2.213-1.86-1.132-1.86-2.213m-.72 0a2.583 2.583 0 102.573-2.815 2.58 2.58 0 00-2.573 2.815m-7.682 2.691h.713v-2.466h2.83v2.463h.713v-5.374h-.716v2.311h-2.83v-2.308h-.713zm-5.7-1.794h2.176v-.6H258.2zm-7.785 1.794h.676V58.97h.015l2.808 4.308h.779v-5.374h-.676v4.359h-.015l-2.83-4.359h-.757zm-4.469 0h.713v-5.374h-.713zm-8.74 0h.448v-2.83h-2.352v.6h1.713a1.621 1.621 0 01-1.72 1.757 1.934 1.934 0 01-1.845-2.147c0-1.125.544-2.279 1.845-2.279a1.45 1.45 0 011.6 1.184h.713a2.086 2.086 0 00-2.308-1.786c-1.7 0-2.558 1.353-2.558 2.918A2.573 2.573 0 00235.3 63.4a2.107 2.107 0 001.72-.794l.191.669zm-12.2 0h.676V58.97h.015l2.808 4.308h.779v-5.374h-.676v4.359h-.015l-2.83-4.359h-.757zm-4.469 0h.713v-5.374h-.713zm-5.69 0h.713v-4.766h1.794v-.6h-4.293v.6h1.794v4.771zm-8.792 0h.713v-2.294h1.75c.691 0 .823.441.9.97.1.529-.007 1.1.2 1.323h.794a2.74 2.74 0 01-.316-1.485c-.051-.529-.184-.985-.809-1.1v-.015a1.289 1.289 0 00.934-1.36c0-.86-.625-1.4-1.632-1.4h-2.529v5.374zm.713-2.9v-1.866h1.772a.85.85 0 01.956.919c0 .787-.573.956-1.242.956zm-8.579.206c0-1.081.551-2.213 1.86-2.213s1.86 1.125 1.86 2.213-.551 2.213-1.86 2.213-1.86-1.132-1.86-2.213m-.713 0a2.583 2.583 0 102.573-2.815 2.58 2.58 0 00-2.573 2.815m-6.421-2.072h1.4c.809 0 1.176.346 1.176.985s-.368.992-1.176.985h-1.4zm-.715 4.766h.713v-2.2h1.639a1.589 1.589 0 100-3.176h-2.352v5.374zm-6.717-4.766h1.4c.809 0 1.176.346 1.176.985s-.368.992-1.176.985h-1.4zm-.713 4.771h.713v-2.2h1.639a1.589 1.589 0 100-3.176h-2.352v5.374zm-3.7-5.374h-.713v3.433a1.3 1.3 0 01-1.4 1.47 1.342 1.342 0 01-1.492-1.47v-3.433h-.713v3.433c0 1.426.816 2.066 2.205 2.066a1.868 1.868 0 002.117-2.066v-3.433zm-7.932 1.573c-.044-1.184-.882-1.7-1.977-1.7-.978 0-1.948.478-1.948 1.573 0 .985.867 1.235 1.72 1.426s1.713.316 1.713 1.051c0 .772-.713.978-1.36.978-.816 0-1.566-.39-1.566-1.294h-.676c0 1.309 1.014 1.9 2.22 1.9.978 0 2.1-.456 2.1-1.6 0-1.051-.86-1.353-1.713-1.551s-1.72-.294-1.72-.956c0-.7.6-.919 1.206-.919a1.173 1.173 0 011.331 1.1h.676zm-12.085 0c-.044-1.184-.882-1.7-1.977-1.7-.978 0-1.948.478-1.948 1.573 0 .985.867 1.235 1.72 1.426s1.713.316 1.713 1.051c0 .772-.713.978-1.36.978-.816 0-1.566-.39-1.566-1.294h-.676c0 1.309 1.014 1.9 2.22 1.9.978 0 2.1-.456 2.1-1.6 0-1.051-.86-1.353-1.713-1.551s-1.72-.294-1.72-.956c0-.7.6-.919 1.206-.919a1.173 1.173 0 011.331 1.1zm-9.439 3.8h.713v-4.77h1.786v-.6h-4.293v.6h1.794zm-8.792 0h.713v-2.294h1.75c.691 0 .823.441.9.97.1.529 0 1.1.2 1.323h.794a2.739 2.739 0 01-.316-1.485c-.051-.529-.184-.985-.8-1.1v-.015a1.289 1.289 0 00.934-1.36c0-.86-.625-1.4-1.632-1.4h-2.529v5.374h-.007zm.713-2.9v-1.87h1.779a.85.85 0 01.956.919c0 .787-.573.956-1.242.956zm-7.866 2.9h3.727v-.6h-3.014v-1.87h2.793v-.6h-2.793v-1.7h2.992v-.6h-3.7v5.374zm-6.723-4.77h1.4c.809 0 1.176.346 1.176.985s-.368.992-1.176.985h-1.4zm-.72 4.771h.713v-2.2h1.639a1.589 1.589 0 100-3.176h-2.352v5.374zm-7.748 0h.809l1.492-2.22 1.441 2.22h.875l-1.895-2.762 1.772-2.61h-.794l-1.4 2.1-1.338-2.1h-.86l1.764 2.61zm-6.557 0h3.727v-.6h-3.014v-1.871h2.793v-.6h-2.793v-1.7h2.992v-.6h-3.7v5.374z" data-name="Path 120"/></g><g clip-path="url(#a)" data-name="Group 129"><path fill="none" stroke="#0036fb" stroke-width="4" d="M75.584 44.349V1.838H1.404v49.179c15.834 0 37.094 7.917 37.094 7.917V46.849" data-name="Path 180"/></g><path fill="none" stroke="#0036fb" stroke-width="4" d="M50.582 48.782v-9.225l-12.5-8.763-12.5 8.763v14.8" data-name="Path 181"/><path fill="none" stroke="#0036fb" stroke-width="4" d="M12.658 46.849V12.468" data-name="Line 47"/><path fill="none" stroke="#0036fb" stroke-width="4" d="M21.06 18.209v-5.741" data-name="Line 48"/><path fill="none" stroke="#0036fb" stroke-width="4" d="M29.463 18.209v-5.741" data-name="Line 49"/><path fill="none" stroke="#0036fb" stroke-width="4" d="M37.865 18.209v-5.741" data-name="Line 50"/><path fill="none" stroke="#0036fb" stroke-width="4" d="M46.267 18.209v-5.741" data-name="Line 51"/><path fill="none" stroke="#0036fb" stroke-width="4" d="M54.67 18.209v-5.741" data-name="Line 52"/><path fill="none" stroke="#0036fb" stroke-width="4" d="M63.072 52.267V12.468" data-name="Line 53"/><path fill="none" stroke="#0036fb" stroke-width="4" d="M64.542 18.209H12.614" data-name="Line 54"/><g data-name="Group 131"><g fill="none" stroke="#0036fb" stroke-width="4" data-name="Group 130" clip-path="url(#a)"><path d="M78.921 50.01s-16.334 1.419-28 5.381-26 11.46-26 11.46" data-name="Path 182"/><path d="M79.046 60.588s-16.827 1.419-28.265 5.984c-4.173 1.669-10.35 4.249-14.393 6.326" data-name="Path 183"/><path d="M79.171 70.063s-16.555 1.823-27.655 7.175c-1.051.507-2.566 1.286-4.234 2.117a120.54 120.54 0 00-20.149-10.916c-11.357-4.764-28.03-6.131-28.03-6.131" data-name="Path 184"/><path d="M42.029 86.648a151.848 151.848 0 00-15.893-8.983c-11.188-5.153-27.831-6.138-27.831-6.138" data-name="Path 185"/></g></g></g></symbol><symbol id="twitter" viewBox="0 0 35.516 28.844"><path d="M31.865 10.569c.023.315.023.631.023.946 0 9.622-7.324 20.709-20.71 20.709A20.571 20.571 0 010 28.957a15.057 15.057 0 001.758.09 14.578 14.578 0 009.037-3.11 7.292 7.292 0 01-6.806-5.047 9.18 9.18 0 001.375.11 7.7 7.7 0 001.916-.248 7.28 7.28 0 01-5.837-7.143v-.09a7.331 7.331 0 003.29.924A7.289 7.289 0 012.479 4.71a20.691 20.691 0 0015.009 7.617 8.216 8.216 0 01-.18-1.668 7.286 7.286 0 0112.6-4.98 14.331 14.331 0 004.62-1.758 7.259 7.259 0 01-3.2 4.011 14.593 14.593 0 004.192-1.127 15.647 15.647 0 01-3.651 3.763z" transform="translate(0 -3.381)"/></symbol><symbol id="up" viewBox="0 0 22.945 14.166"><path id="up" d="M11.7 26.166l8.775-8.756 8.77 8.756 2.7-2.7L20.47 12 9 23.466z" transform="translate(-9 -12)"/></symbol></svg>