<svg xmlns="http://www.w3.org/2000/svg" width="96.543" height="89.009" viewBox="0 0 96.543 89.009"><path d="M10.87-10806.991a7.3,7.3,0,0,1-7.285-7.287v-2.057H-7.93A6.077,6.077,0,0,1-14-10822.4v-53.794a6.078,6.078,0,0,1,6.071-6.07H3.585v-2.059a7.293,7.293,0,0,1,7.285-7.285h9.642a23.69,23.69,0,0,1,13.76-4.389,23.675,23.675,0,0,1,13.757,4.389h9.642a7.293,7.293,0,0,1,7.285,7.285v2.059H76.471a6.078,6.078,0,0,1,6.071,6.07v11.384a1.433,1.433,0,0,1-1.433,1.434,1.433,1.433,0,0,1-1.433-1.434v-11.384a3.209,3.209,0,0,0-3.2-3.2H64.956v32.732h7.957a1.433,1.433,0,0,1,1.433,1.434,1.433,1.433,0,0,1-1.433,1.436H64.956v3.391h7.957a1.432,1.432,0,0,1,1.433,1.433,1.433,1.433,0,0,1-1.433,1.436H64.956v3.615h7.957a1.433,1.433,0,0,1,1.433,1.436,1.433,1.433,0,0,1-1.433,1.434H64.956v11.854H76.471a3.209,3.209,0,0,0,3.2-3.205v-36.673a1.432,1.432,0,0,1,1.433-1.433,1.432,1.432,0,0,1,1.433,1.433v36.673a6.078,6.078,0,0,1-6.071,6.071H64.956v2.057a7.3,7.3,0,0,1-7.285,7.287Zm-4.416-14.323v7.036a4.422,4.422,0,0,0,4.416,4.419h46.8a4.425,4.425,0,0,0,4.419-4.419v-70.048a4.424,4.424,0,0,0-4.419-4.417h-6.3a23.729,23.729,0,0,1,6.713,16.555,23.839,23.839,0,0,1-23.81,23.813,23.84,23.84,0,0,1-23.812-23.812,23.72,23.72,0,0,1,6.716-16.555H10.87a4.424,4.424,0,0,0-4.419,4.417v57.274a1.433,1.433,0,0,1-1.433,1.436,1.433,1.433,0,0,1-1.433-1.436v-4H-4.373a1.433,1.433,0,0,1-1.433-1.434,1.433,1.433,0,0,1,1.433-1.436H3.585v-3.615H-4.373a1.433,1.433,0,0,1-1.433-1.436,1.432,1.432,0,0,1,1.433-1.433H3.585v-3.391H-4.373a1.433,1.433,0,0,1-1.433-1.436,1.433,1.433,0,0,1,1.433-1.434H3.585v-32.734H-7.93a3.206,3.206,0,0,0-3.2,3.2v53.794a3.207,3.207,0,0,0,3.2,3.2H3.585v-2.113a1.435,1.435,0,0,1,1.433-1.436A1.435,1.435,0,0,1,6.454-10821.314Zm14.564-34.669a20.835,20.835,0,0,0,13.254,4.739,20.857,20.857,0,0,0,13.254-4.739,14.812,14.812,0,0,0-13.254-8.157A14.806,14.806,0,0,0,21.018-10855.983Zm-7.692-16.205a20.87,20.87,0,0,0,5.532,14.165,17.633,17.633,0,0,1,9.265-7.889,11.6,11.6,0,0,1-5.455-9.836,11.617,11.617,0,0,1,11.605-11.605,11.619,11.619,0,0,1,11.605,11.605,11.6,11.6,0,0,1-5.458,9.836,17.656,17.656,0,0,1,9.267,7.886,20.868,20.868,0,0,0,5.529-14.162,20.968,20.968,0,0,0-20.944-20.943A20.968,20.968,0,0,0,13.325-10872.188Zm12.207-3.56a8.75,8.75,0,0,0,8.74,8.739,8.75,8.75,0,0,0,8.737-8.739,8.748,8.748,0,0,0-8.737-8.737A8.748,8.748,0,0,0,25.532-10875.748Zm-11.594,50.44a1.435,1.435,0,0,1-1.436-1.433,1.435,1.435,0,0,1,1.436-1.436H24.244a1.435,1.435,0,0,1,1.433,1.436,1.434,1.434,0,0,1-1.433,1.433Zm0-6.483a1.433,1.433,0,0,1-1.436-1.433,1.433,1.433,0,0,1,1.436-1.433H54.606a1.432,1.432,0,0,1,1.433,1.433,1.432,1.432,0,0,1-1.433,1.433Zm0-6.259a1.435,1.435,0,0,1-1.436-1.434,1.435,1.435,0,0,1,1.436-1.436H54.606a1.435,1.435,0,0,1,1.433,1.436,1.434,1.434,0,0,1-1.433,1.434Z" transform="translate(14.001 10896)" /></svg>
