<svg xmlns="http://www.w3.org/2000/svg" width="97.131" height="79.676" viewBox="0 0 97.131 79.676"><path d="M7.438-10816.324a1.9,1.9,0,0,1-1.9-1.9v-32.251a19.847,19.847,0,0,1-17.553-10.732,1.9,1.9,0,0,1,.831-2.552,1.893,1.893,0,0,1,2.549.831,16,16,0,0,0,15.863,8.567,1.892,1.892,0,0,1,1.474.474,1.9,1.9,0,0,1,.629,1.411v17.178H19.388v-9.486a1.9,1.9,0,0,1,1.9-1.895,1.9,1.9,0,0,1,1.9,1.895v9.486h9.483v-9.486a1.9,1.9,0,0,1,1.9-1.895,1.9,1.9,0,0,1,1.9,1.895v9.486h9.486v-9.486a1.894,1.894,0,0,1,1.9-1.895,1.9,1.9,0,0,1,1.9,1.895v9.486H59.8v-17.178a1.891,1.891,0,0,1,.632-1.411,1.882,1.882,0,0,1,1.471-.474,15.879,15.879,0,0,0,1.69.091c8.537,0,15.748-6.949,15.748-15.177s-7.211-15.174-15.748-15.174a16.448,16.448,0,0,0-11.231,4.378,1.9,1.9,0,0,1-1.824.483,1.9,1.9,0,0,1-1.34-1.326,15.213,15.213,0,0,0-14.63-11.124,15.213,15.213,0,0,0-14.63,11.124,1.9,1.9,0,0,1-1.34,1.326,1.9,1.9,0,0,1-1.821-.483,16.46,16.46,0,0,0-11.233-4.378,16.024,16.024,0,0,0-14.173,8.657,1.892,1.892,0,0,1-2.549.831,1.9,1.9,0,0,1-.831-2.551,19.846,19.846,0,0,1,17.553-10.733,20.92,20.92,0,0,1,11.7,3.65A19.041,19.041,0,0,1,34.565-10896a19.041,19.041,0,0,1,17.329,11.238,20.934,20.934,0,0,1,11.7-3.65c10.287,0,19.541,8.308,19.541,18.97s-9.254,18.972-19.541,18.972v32.251a1.894,1.894,0,0,1-1.9,1.9Zm1.9-3.793H59.8v-11.384H9.333ZM-14-10869.439a1.9,1.9,0,0,1,1.9-1.9,1.9,1.9,0,0,1,1.9,1.9,1.9,1.9,0,0,1-1.9,1.895A1.9,1.9,0,0,1-14-10869.439Z" transform="translate(14.001 10896)" /></svg>
