<svg xmlns="http://www.w3.org/2000/svg" width="90.942" height="84.871" viewBox="0 0 90.942 84.871"><path d="M83.769,9.263a26.271,26.271,0,0,0-37.18-1.081l-1.15,1.087A26.3,26.3,0,0,0,7.169,45.352L9.759,48.1a7.674,7.674,0,0,0,8.026,10.654,7.638,7.638,0,0,0,8.5,9.013,7.636,7.636,0,0,0,8.5,9.011,7.7,7.7,0,0,0,12.852,7c8.65-8.167,8.379-7.759,9.2-9.136a7.655,7.655,0,0,0,10.971-7.849,7.661,7.661,0,0,0,9.008-8.516,7.7,7.7,0,0,0,6.918-12.931,26.223,26.223,0,0,0,.03-36.081ZM13.436,54.355a4.688,4.688,0,0,1,.191-6.618L21.509,40.3A4.681,4.681,0,0,1,27.933,47.1l-7.882,7.442A4.684,4.684,0,0,1,13.436,54.355Zm8.5,9.013a4.685,4.685,0,0,1,.191-6.618l7.882-7.442a4.679,4.679,0,1,1,6.422,6.807l-7.882,7.444a4.685,4.685,0,0,1-6.613-.2Zm8.5,9.011a4.687,4.687,0,0,1,.193-6.616l7.882-7.442a4.679,4.679,0,0,1,6.424,6.8L37.061,72.56a4.681,4.681,0,0,1-6.616-.188Zm15.12,9.2a4.68,4.68,0,0,1-6.424-6.807l7.882-7.444a4.681,4.681,0,0,1,6.424,6.809ZM81.417,54.122a4.667,4.667,0,0,1-6.613-.191l-20.2-21.4A1.516,1.516,0,1,0,52.4,34.61l20.2,21.4A4.68,4.68,0,0,1,65.8,62.436l-20.2-21.4a1.516,1.516,0,0,0-2.205,2.081l20.2,21.4a4.675,4.675,0,0,1-5.745,7.253,7.652,7.652,0,0,0-7.382-8.749c-1.667-.044-1.061.587-1.019-1.081A7.708,7.708,0,0,0,41.955,54c-1.667-.053-1.069.606-1.019-1.081a7.711,7.711,0,0,0-7.486-7.932c-1.678-.047-1.069.62-1.019-1.081a7.72,7.72,0,0,0-13-5.831c-10.838,10.23-7.1,6.7-7.906,7.467L9.376,43.271A23.266,23.266,0,0,1,43.233,11.352L30.819,23.075a6.292,6.292,0,0,0-1.933,4.3c-.152,6.225,9.108,10.145,14.767,4.79L54.967,21.488a1.516,1.516,0,0,1,2.143.061c2.974,3.151,21.645,22.938,24.5,25.959a4.678,4.678,0,0,1-.191,6.615Zm.259-10.959-22.362-23.7a4.547,4.547,0,0,0-6.428-.185L41.57,29.962a6.215,6.215,0,0,1-8.8-.271,3.119,3.119,0,0,1,.135-4.415L48.667,10.386A23.27,23.27,0,0,1,81.676,43.163Z" transform="translate(-0.005 -0.999)" /></svg>
