<svg xmlns="http://www.w3.org/2000/svg" width="35.509" height="35.5" viewBox="0 0 35.509 35.5">
	<path d="M17.753,10.886a9.1,9.1,0,1,0,9.1,9.1A9.087,9.087,0,0,0,17.753,10.886Zm0,15.019a5.917,5.917,0,1,1,5.918-5.917A5.928,5.928,0,0,1,17.753,25.9Zm11.6-15.391a2.123,2.123,0,1,1-2.123-2.123A2.118,2.118,0,0,1,29.351,10.514Zm6.028,2.155c-.135-2.844-.784-5.363-2.868-7.438s-4.595-2.725-7.439-2.868c-2.931-.166-11.716-.166-14.647,0-2.836.135-5.355.784-7.439,2.86S.262,9.816.119,12.66c-.166,2.931-.166,11.716,0,14.647C.254,30.151.9,32.67,2.987,34.745s4.595,2.725,7.439,2.868c2.931.166,11.716.166,14.647,0,2.844-.135,5.363-.784,7.439-2.868s2.725-4.594,2.868-7.438C35.546,24.376,35.546,15.6,35.379,12.668ZM31.593,30.452a5.991,5.991,0,0,1-3.375,3.375c-2.337.927-7.882.713-10.465.713s-8.136.206-10.465-.713a5.991,5.991,0,0,1-3.375-3.375C2.987,28.115,3.2,22.57,3.2,19.988S3,11.852,3.914,9.523A5.991,5.991,0,0,1,7.289,6.149c2.337-.927,7.882-.713,10.465-.713s8.136-.206,10.465.713a5.991,5.991,0,0,1,3.375,3.375c.927,2.337.713,7.882.713,10.464S32.52,28.123,31.593,30.452Z" transform="translate(0.005 -2.237)" />
</svg>
