<svg xmlns="http://www.w3.org/2000/svg" width="35.501" height="35.5" viewBox="0 0 35.501 35.5">
	<path d="M32.966,2.25H2.528A2.547,2.547,0,0,0,0,4.809V35.19A2.547,2.547,0,0,0,2.528,37.75H32.966A2.553,2.553,0,0,0,35.5,35.19V4.809A2.553,2.553,0,0,0,32.966,2.25ZM10.73,32.678H5.468V15.737h5.27V32.678ZM8.1,13.423a3.051,3.051,0,1,1,3.051-3.051A3.052,3.052,0,0,1,8.1,13.423ZM30.454,32.678H25.192V24.437c0-1.965-.04-4.493-2.734-4.493-2.742,0-3.162,2.139-3.162,4.35v8.384H14.034V15.737h5.048v2.314h.071a5.542,5.542,0,0,1,4.984-2.734c5.325,0,6.316,3.51,6.316,8.075Z" transform="translate(0 -2.25)" />
</svg>
