<svg xmlns="http://www.w3.org/2000/svg" width="84.768" height="84.768" viewBox="0 0 84.768 84.768"><path d="M45.9-10811.72l-12.541-12.538H15.426A29.46,29.46,0,0,1-14-10853.685a29.436,29.436,0,0,1,3.694-14.282,1.655,1.655,0,0,1,2.253-.643,1.656,1.656,0,0,1,.64,2.253,26.118,26.118,0,0,0-3.276,12.672,26.144,26.144,0,0,0,26.115,26.115H34.045a1.654,1.654,0,0,1,1.17.484l10.2,10.2v-9.617a1.654,1.654,0,0,1,1.315-1.621,26.217,26.217,0,0,0,20.725-25.558,26.144,26.144,0,0,0-26.115-26.114H39.254a1.655,1.655,0,0,1-1.654-1.654,1.657,1.657,0,0,1,1.654-1.657h2.086a29.46,29.46,0,0,1,29.426,29.426,29.471,29.471,0,0,1-6.678,18.666,29.525,29.525,0,0,1-15.365,9.823v12.3a1.653,1.653,0,0,1-1.02,1.529,1.679,1.679,0,0,1-.634.128A1.651,1.651,0,0,1,45.9-10811.72Zm-18.863-25.095a1.655,1.655,0,0,1-1.654-1.654,1.657,1.657,0,0,1,1.654-1.657h21.72a1.657,1.657,0,0,1,1.657,1.657,1.656,1.656,0,0,1-1.657,1.654Zm-9.341,0a1.656,1.656,0,0,1-1.654-1.657,1.654,1.654,0,0,1,1.654-1.654h.027a1.654,1.654,0,0,1,1.654,1.654,1.656,1.656,0,0,1-1.654,1.657Zm-9.686-8.83a1.656,1.656,0,0,1-1.657-1.654,1.656,1.656,0,0,1,1.657-1.657H48.757a1.656,1.656,0,0,1,1.657,1.657,1.656,1.656,0,0,1-1.657,1.654Zm0-8.83a1.656,1.656,0,0,1-1.657-1.654,1.656,1.656,0,0,1,1.657-1.657H48.757a1.656,1.656,0,0,1,1.657,1.657,1.656,1.656,0,0,1-1.657,1.654Zm0-8.83a1.655,1.655,0,0,1-1.657-1.654,1.656,1.656,0,0,1,1.657-1.657H48.757a1.656,1.656,0,0,1,1.657,1.657,1.655,1.655,0,0,1-1.657,1.654Zm6.464-7.615a2.612,2.612,0,0,1-2.609-2.608v-8.617c0-10.916,6.24-13.558,11.471-13.853a1.66,1.66,0,0,1,1.231.451,1.652,1.652,0,0,1,.52,1.2v4.952a1.658,1.658,0,0,1-1.507,1.651c-.853.076-2.707.246-3.161,3.6h3.013a2.612,2.612,0,0,1,2.609,2.608v8a2.612,2.612,0,0,1-2.609,2.608Zm.7-11.226v7.914H22.73v-6.6H18.663a1.656,1.656,0,0,1-1.657-1.654c0-5.6,2.551-7.591,4.769-8.264v-1.742C18.565-10891.889,15.177-10889.761,15.177-10882.146ZM-2.45-10870.92a2.612,2.612,0,0,1-2.609-2.608v-8.617c0-10.916,6.237-13.558,11.471-13.853a1.66,1.66,0,0,1,1.231.451,1.649,1.649,0,0,1,.517,1.2v4.952a1.658,1.658,0,0,1-1.5,1.651c-.856.076-2.71.246-3.164,3.6H6.505a2.612,2.612,0,0,1,2.609,2.608v8a2.612,2.612,0,0,1-2.609,2.608Zm.7-11.226v7.914H5.8v-6.6H1.736a1.657,1.657,0,0,1-1.657-1.654c0-5.6,2.554-7.591,4.769-8.264v-1.742C1.638-10891.889-1.747-10889.761-1.747-10882.146Zm32.6,1.862a1.666,1.666,0,0,1-.487-1.17,1.66,1.66,0,0,1,.487-1.171,1.66,1.66,0,0,1,1.17-.486,1.669,1.669,0,0,1,1.17.486,1.669,1.669,0,0,1,.484,1.171,1.676,1.676,0,0,1-.484,1.17,1.676,1.676,0,0,1-1.17.484A1.666,1.666,0,0,1,30.857-10880.283Z" transform="translate(14.001 10896.001)"/></svg>
