<svg xmlns="http://www.w3.org/2000/svg" width="213" height="52.252" viewBox="0 0 213 52.252"><path d="M3661.572,6135.253c-10.622-.084-20.511-5.437-20.572-17.388v-.355h10.411c0,6.639,5.071,9.223,10.822,9.223,3.768,0,9.523-1.119,9.523-6.217,0-5.379-7.33-6.289-14.521-8.244-7.262-1.956-14.591-4.821-14.591-14.182,0-10.2,9.453-15.089,18.29-15.089,10.015,0,19.23,4.375,19.573,15.431H3670.05c-.6-5.47-4.646-6.91-9.594-6.91-3.426,0-7.4,1.468-7.4,5.659,0,3.843,2.329,4.334,14.591,7.548,3.563.906,14.524,3.213,14.524,14.529,0,9.087-6.962,15.9-20.08,16Zm110.508-18.48c0-11.1,6.492-19.309,17.851-19.309,8.249,0,15.823,4.416,16.433,13.518h-9.4c-.61-4-3.111-6.138-7.1-6.138-6.154,0-8.182,6.342-8.182,11.584,0,5.1,1.961,11.24,7.979,11.24,4.464,0,7.032-2.895,7.641-7.24h9.264c-1.217,9.448-7.639,14.622-16.834,14.622C3779.181,6135.05,3772.08,6127.462,3772.08,6116.772Zm-17.057,9.24v-21.031h-5.817v-6.55h5.817V6087.9h9.6v10.531h7.029v6.55h-7.029v17.652c0,3.31.81,4.14,4.053,4.14a14.478,14.478,0,0,0,2.976-.279v7.655a36.131,36.131,0,0,1-5.611.347C3760.161,6134.5,3755.023,6133.114,3755.023,6126.013Zm89.373,8.071v-8.069h9.6v8.069Zm-129.267,0-6.222-23.931h-.135l-5.95,23.931h-9.94l-11.088-35.654h10.142l6.424,24.206h.133l5.815-24.206h9.333l5.95,24.135h.136l6.422-24.135h9.872L3725,6134.084Zm117.226,0v-20.135c0-5.861-1.688-8.756-6.153-8.756-5.208,0-7.44,2.965-7.44,10.2v18.688h-9.6V6087.9h9.6v15.5h.2a12.236,12.236,0,0,1,10.21-5.932c10.211,0,12.781,5.862,12.781,14.689v21.929Zm-94.71,0v-35.65h9.6v35.65Z" transform="translate(-3641 -6083.001)"/></svg>