<svg xmlns="http://www.w3.org/2000/svg" width="384.661" height="84.604"><defs><clipPath id="a"><path fill="none" d="M0 0h77.062v84.604H0z" data-name="Rectangle 182"/></clipPath></defs><g data-name="Group 132"><g fill="#020c30" data-name="Group 127"><path d="M318.611 38.205c0 2.9-2.22 6.263-5.359 6.263a3.127 3.127 0 0 1-3.359-3.176c0-3.492 5.491-3.859 7.763-3.859h.956v.772Zm8.807 10.034v-4.315h-3.07l-.015-10.262c0-5.9-3.315-9.123-9.534-9.123a15.708 15.708 0 0 0-9.167 2.86l2.132 3.992a12.758 12.758 0 0 1 6.535-2.227c2.4 0 4.264 1.044 4.264 3.992v.772h-1.456c-3.72 0-13.026.728-13.026 7.807 0 4.719 3.72 7.035 7.675 7.035a8.051 8.051 0 0 0 7.307-4.447h.085l-.015 3.9h8.277v.015Z" data-name="Path 111"/><path d="M179.822 29.398h2.815l7.035 18.841h6.623l7.079-18.841h2.771v-4.315h-11.123v4.315h2.632l-4.043 11.438a12.712 12.712 0 0 0-.544 2.543h-.132a11.178 11.178 0 0 0-.588-2.543l-3.992-11.438h2.588v-4.315h-11.121Z" data-name="Path 112"/><path d="M223.922 34.073h-10.079c.544-3.043 2.632-5.087 5.587-5.087 2.448 0 4.4 1.9 4.492 5.087m5.947 1.456c0-6.131-3.631-10.983-10.306-10.983s-11.755 4.991-11.755 12.122c0 6.579 4.764 12.122 12.438 12.122a14.751 14.751 0 0 0 9.351-3.22l-2.22-4.084a11.7 11.7 0 0 1-6.719 2.448 6.668 6.668 0 0 1-6.947-6.448h16.027s.132-1.272.132-1.948" data-name="Path 113"/><path d="M233.64 48.239h12.438v-4.315h-3.315v-6.079c0-4.043 2.448-8.035 6.631-8.035 2.9 0 3.676 1.9 3.676 4.719v13.71h9.079v-4.315h-3.359V33.346c0-6.131-2.815-8.807-7.763-8.807a9.289 9.289 0 0 0-8.535 5.175l.074-4.631h-9.154v4.315l3.587-.015v14.54h-3.359v4.316Z" data-name="Path 114"/><path d="M287.428 31.125h-5.359v-10.35h4.359a9.141 9.141 0 0 1 3.631.588c1.772.728 2.543 2.36 2.543 4.447 0 3.448-2.044 5.308-5.175 5.308m13.57 17.121v-4.448h-3.014l-5.521-9.439v-.091c3.72-1.272 6.079-4.447 6.079-8.946s-2.36-7.447-5.947-8.623a21.12 21.12 0 0 0-6.131-.684h-14.208V20.5h3.86v23.291h-3.86v4.447h13.526v-4.447h-3.72v-7.9h4.977l6.984 12.35h6.976Z" data-name="Path 115"/><path d="M375.994 36.8c0 4.947-2.815 7.123-5.859 7.123-3.359 0-5.719-2.86-5.719-7.263s2.632-7.175 5.9-7.175c3.815 0 5.675 3.543 5.675 7.307m8.667 11.446v-4.314h-3.021l-.066-27.92h-9.306v4.315h3.587l.088 7.491s-1.816-3.271-6.763-3.271c-6.263 0-10.578 4.764-10.578 12.122s3.948 12.122 10.122 12.122c5.763 0 7.579-4.315 7.579-4.315v3.764h8.358Z" data-name="Path 116"/><path d="M347.368 36.8c0 4.947-2.815 7.123-5.859 7.123-3.359 0-5.719-2.86-5.719-7.263s2.632-7.175 5.9-7.175c3.815 0 5.675 3.543 5.675 7.307m8.674 11.446v-4.314h-3.021l-.066-27.92h-9.307v4.315h3.587l.088 7.491s-1.816-3.271-6.763-3.271c-6.263 0-10.578 4.764-10.578 12.122s3.948 12.122 10.122 12.122c5.763 0 7.579-4.315 7.579-4.315v3.764h8.358Z" data-name="Path 117"/></g><path fill="#020c30" d="M150.264 44.334H146.5V21.046h2.926v-4.962h-10.909l-7.645 21.723-7.653-21.723H112.31v4.962h2.926v23.288h-3.764v4.447h13.21v-4.447h-3.587V27.596l7.792 21.186h3.965l7.792-21.186v16.738h-3.592v4.447h13.21Z" data-name="Path 179"/><g fill="#020c30" data-name="Group 128"><path d="M169.207 38.204c0 2.9-2.227 6.263-5.359 6.263a3.127 3.127 0 0 1-3.364-3.179c0-3.492 5.491-3.859 7.763-3.859h.956v.772Zm8.8 10.034v-4.315h-3.073l-.015-10.262c0-5.9-3.315-9.123-9.534-9.123a15.708 15.708 0 0 0-9.167 2.86l2.132 3.992a12.758 12.758 0 0 1 6.535-2.227c2.4 0 4.271 1.044 4.271 3.992v.772H167.7c-3.72 0-13.026.728-13.026 7.807 0 4.719 3.72 7.035 7.667 7.035a8.051 8.051 0 0 0 7.307-4.447h.088l-.015 3.9h8.277v.015Z" data-name="Path 119"/><path d="M382.728 59.477c-.044-1.184-.882-1.7-1.977-1.7-.978 0-1.948.478-1.948 1.573 0 .985.867 1.235 1.72 1.426s1.713.316 1.713 1.051c0 .772-.713.978-1.36.978-.816 0-1.566-.39-1.566-1.294h-.676c0 1.309 1.014 1.9 2.22 1.9.978 0 2.1-.456 2.1-1.6 0-1.051-.86-1.353-1.713-1.551s-1.72-.294-1.72-.956c0-.7.6-.919 1.206-.919a1.173 1.173 0 0 1 1.331 1.1Zm-12.879 3.8h.676v-4.465h.015l1.676 4.469h.61l1.676-4.469h.015v4.469h.676v-5.374h-.978l-1.7 4.514-1.691-4.514h-.978v5.374Zm-5.616-4.727h.015l.9 2.507h-1.823Zm-2.47 4.727h.735l.6-1.617h2.272l.588 1.617h.794l-2.1-5.374h-.787l-2.1 5.374Zm-6.52 0h3.727v-.6h-3.014v-1.865h2.793v-.6h-2.793v-1.7h2.992v-.6h-3.7v5.374Zm-5.653 0h.713v-4.765h1.786v-.6h-4.293v.6h1.794v4.771Zm-12.607 0h3.557v-.6h-2.845v-4.771h-.713Zm-5.6-4.727h.015l.9 2.507h-1.823l.912-2.507Zm-2.47 4.727h.735l.6-1.617h2.271l.588 1.617h.787l-2.1-5.374H331Zm-3.426 0h.448v-2.83h-2.352v.6h1.713a1.621 1.621 0 0 1-1.72 1.757 1.934 1.934 0 0 1-1.845-2.147c0-1.125.544-2.279 1.845-2.279a1.454 1.454 0 0 1 1.6 1.184h.713a2.086 2.086 0 0 0-2.308-1.786c-1.7 0-2.558 1.353-2.558 2.918a2.573 2.573 0 0 0 2.558 2.705 2.107 2.107 0 0 0 1.72-.794l.191.669Zm-11.357 0h3.734v-.6h-3.014v-1.865h2.79v-.6h-2.793v-1.7h2.993v-.6h-3.7v5.374Zm-6.741 0h3.551v-.6h-2.845v-4.771h-.713Zm-11.806 0h3.727v-.6h-3.014v-1.865h2.793v-.6h-2.793v-1.7h2.992v-.6h-3.7Zm-3.646-3.8c-.044-1.184-.882-1.7-1.977-1.7-.978 0-1.948.478-1.948 1.573 0 .985.867 1.235 1.72 1.426s1.713.316 1.713 1.051c0 .772-.713.978-1.36.978-.816 0-1.566-.39-1.566-1.294h-.679c0 1.309 1.014 1.9 2.22 1.9.978 0 2.1-.456 2.1-1.6 0-1.051-.86-1.353-1.713-1.551s-1.72-.294-1.72-.956c0-.7.6-.919 1.206-.919a1.173 1.173 0 0 1 1.331 1.1h.676Zm-7.491-1.573h-.713v3.433a1.3 1.3 0 0 1-1.4 1.47 1.362 1.362 0 0 1-1.492-1.47v-3.433h-.713v3.433c0 1.426.816 2.066 2.205 2.066a1.868 1.868 0 0 0 2.117-2.066Zm-12.144 2.683c0-1.081.551-2.213 1.86-2.213s1.86 1.125 1.86 2.213-.551 2.213-1.86 2.213-1.86-1.132-1.86-2.213m-.72 0a2.583 2.583 0 1 0 2.573-2.815 2.58 2.58 0 0 0-2.573 2.815m-7.682 2.691h.713v-2.466h2.83v2.463h.713v-5.374h-.716v2.311h-2.83v-2.308h-.713Zm-5.7-1.794h2.176v-.6H258.2Zm-7.785 1.794h.676V58.97h.015l2.808 4.308h.779v-5.374h-.676v4.359h-.015l-2.83-4.359h-.757Zm-4.469 0h.713v-5.374h-.713Zm-8.74 0h.448v-2.83h-2.352v.6h1.713a1.621 1.621 0 0 1-1.72 1.757 1.934 1.934 0 0 1-1.845-2.147c0-1.125.544-2.279 1.845-2.279a1.45 1.45 0 0 1 1.6 1.184h.713a2.086 2.086 0 0 0-2.308-1.786c-1.7 0-2.558 1.353-2.558 2.918A2.573 2.573 0 0 0 235.3 63.4a2.107 2.107 0 0 0 1.72-.794l.191.669Zm-12.2 0h.676V58.97h.015l2.808 4.308h.779v-5.374h-.676v4.359h-.015l-2.83-4.359h-.757Zm-4.469 0h.713v-5.374h-.713Zm-5.69 0h.713v-4.766h1.794v-.6h-4.293v.6h1.794v4.771Zm-8.792 0h.713v-2.294h1.75c.691 0 .823.441.9.97.1.529-.007 1.1.2 1.323h.794a2.74 2.74 0 0 1-.316-1.485c-.051-.529-.184-.985-.809-1.1v-.015a1.289 1.289 0 0 0 .934-1.36c0-.86-.625-1.4-1.632-1.4h-2.529v5.374Zm.713-2.9v-1.866h1.772a.85.85 0 0 1 .956.919c0 .787-.573.956-1.242.956Zm-8.579.206c0-1.081.551-2.213 1.86-2.213s1.86 1.125 1.86 2.213-.551 2.213-1.86 2.213-1.86-1.132-1.86-2.213m-.713 0a2.583 2.583 0 1 0 2.573-2.815 2.58 2.58 0 0 0-2.573 2.815m-6.421-2.072h1.4c.809 0 1.176.346 1.176.985s-.368.992-1.176.985h-1.4Zm-.715 4.766h.713v-2.2h1.639a1.589 1.589 0 1 0 0-3.176h-2.352v5.374Zm-6.717-4.766h1.4c.809 0 1.176.346 1.176.985s-.368.992-1.176.985h-1.4Zm-.713 4.771h.713v-2.2h1.639a1.589 1.589 0 1 0 0-3.176h-2.352v5.374Zm-3.7-5.374h-.713v3.433a1.3 1.3 0 0 1-1.4 1.47 1.342 1.342 0 0 1-1.492-1.47v-3.433h-.713v3.433c0 1.426.816 2.066 2.205 2.066a1.868 1.868 0 0 0 2.117-2.066v-3.433Zm-7.932 1.573c-.044-1.184-.882-1.7-1.977-1.7-.978 0-1.948.478-1.948 1.573 0 .985.867 1.235 1.72 1.426s1.713.316 1.713 1.051c0 .772-.713.978-1.36.978-.816 0-1.566-.39-1.566-1.294h-.676c0 1.309 1.014 1.9 2.22 1.9.978 0 2.1-.456 2.1-1.6 0-1.051-.86-1.353-1.713-1.551s-1.72-.294-1.72-.956c0-.7.6-.919 1.206-.919a1.173 1.173 0 0 1 1.331 1.1h.676Zm-12.085 0c-.044-1.184-.882-1.7-1.977-1.7-.978 0-1.948.478-1.948 1.573 0 .985.867 1.235 1.72 1.426s1.713.316 1.713 1.051c0 .772-.713.978-1.36.978-.816 0-1.566-.39-1.566-1.294h-.676c0 1.309 1.014 1.9 2.22 1.9.978 0 2.1-.456 2.1-1.6 0-1.051-.86-1.353-1.713-1.551s-1.72-.294-1.72-.956c0-.7.6-.919 1.206-.919a1.173 1.173 0 0 1 1.331 1.1Zm-9.439 3.8h.713v-4.77h1.786v-.6h-4.293v.6h1.794Zm-8.792 0h.713v-2.294h1.75c.691 0 .823.441.9.97.1.529 0 1.1.2 1.323h.794a2.739 2.739 0 0 1-.316-1.485c-.051-.529-.184-.985-.8-1.1v-.015a1.289 1.289 0 0 0 .934-1.36c0-.86-.625-1.4-1.632-1.4h-2.529v5.374h-.007Zm.713-2.9v-1.87h1.779a.85.85 0 0 1 .956.919c0 .787-.573.956-1.242.956Zm-7.866 2.9h3.727v-.6h-3.014v-1.87h2.793v-.6h-2.793v-1.7h2.992v-.6h-3.7v5.374Zm-6.723-4.77h1.4c.809 0 1.176.346 1.176.985s-.368.992-1.176.985h-1.4Zm-.72 4.771h.713v-2.2h1.639a1.589 1.589 0 1 0 0-3.176h-2.352v5.374Zm-7.748 0h.809l1.492-2.22 1.441 2.22h.875l-1.895-2.762 1.772-2.61h-.794l-1.4 2.1-1.338-2.1h-.86l1.764 2.61Zm-6.557 0h3.727v-.6h-3.014v-1.871h2.793v-.6h-2.793v-1.7h2.992v-.6h-3.7v5.374Z" data-name="Path 120"/></g><g clip-path="url(#a)" data-name="Group 129"><path fill="none" stroke="#0036fb" stroke-width="4" d="M75.584 44.349V1.838H1.404v49.179c15.834 0 37.094 7.917 37.094 7.917V46.849" data-name="Path 180"/></g><path fill="none" stroke="#0036fb" stroke-width="4" d="M50.582 48.782v-9.225l-12.5-8.763-12.5 8.763v14.8" data-name="Path 181"/><path fill="none" stroke="#0036fb" stroke-width="4" d="M12.658 46.849V12.468" data-name="Line 47"/><path fill="none" stroke="#0036fb" stroke-width="4" d="M21.06 18.209v-5.741" data-name="Line 48"/><path fill="none" stroke="#0036fb" stroke-width="4" d="M29.463 18.209v-5.741" data-name="Line 49"/><path fill="none" stroke="#0036fb" stroke-width="4" d="M37.865 18.209v-5.741" data-name="Line 50"/><path fill="none" stroke="#0036fb" stroke-width="4" d="M46.267 18.209v-5.741" data-name="Line 51"/><path fill="none" stroke="#0036fb" stroke-width="4" d="M54.67 18.209v-5.741" data-name="Line 52"/><path fill="none" stroke="#0036fb" stroke-width="4" d="M63.072 52.267V12.468" data-name="Line 53"/><path fill="none" stroke="#0036fb" stroke-width="4" d="M64.542 18.209H12.614" data-name="Line 54"/><g clip-path="url(#a)" data-name="Group 131"><g fill="none" stroke="#0036fb" stroke-width="4" data-name="Group 130"><path d="M78.921 50.01s-16.334 1.419-28 5.381-26 11.46-26 11.46" data-name="Path 182"/><path d="M79.046 60.588s-16.827 1.419-28.265 5.984c-4.173 1.669-10.35 4.249-14.393 6.326" data-name="Path 183"/><path d="M79.171 70.063s-16.555 1.823-27.655 7.175c-1.051.507-2.566 1.286-4.234 2.117a120.54 120.54 0 0 0-20.149-10.916c-11.357-4.764-28.03-6.131-28.03-6.131" data-name="Path 184"/><path d="M42.029 86.648a151.848 151.848 0 0 0-15.893-8.983c-11.188-5.153-27.831-6.138-27.831-6.138" data-name="Path 185"/></g></g></g></svg>