<svg xmlns="http://www.w3.org/2000/svg" width="35.516" height="28.844" viewBox="0 0 35.516 28.844">
	<path d="M31.865,10.569c.023.315.023.631.023.946,0,9.622-7.324,20.709-20.71,20.709A20.571,20.571,0,0,1,0,28.957a15.057,15.057,0,0,0,1.758.09,14.578,14.578,0,0,0,9.037-3.11A7.292,7.292,0,0,1,3.989,20.89,9.18,9.18,0,0,0,5.364,21a7.7,7.7,0,0,0,1.916-.248,7.28,7.28,0,0,1-5.837-7.143v-.09a7.331,7.331,0,0,0,3.29.924A7.289,7.289,0,0,1,2.479,4.71a20.691,20.691,0,0,0,15.009,7.617,8.216,8.216,0,0,1-.18-1.668,7.286,7.286,0,0,1,12.6-4.98,14.331,14.331,0,0,0,4.62-1.758,7.259,7.259,0,0,1-3.2,4.011,14.593,14.593,0,0,0,4.192-1.127,15.647,15.647,0,0,1-3.651,3.763Z" transform="translate(0 -3.381)" />
</svg>
